<svg width="23" height="20" viewBox="0 0 23 20" fill="none" xmlns="http://www.w3.org/2000/svg">
<path d="M11.3851 13.4083L14.6271 17.0943C15.8271 18.4593 16.4281 19.1423 17.0571 18.9753C17.6851 18.8093 17.9011 17.9113 18.3321 16.1143L20.7221 6.14628C21.3871 3.37828 21.7191 1.99528 20.9811 1.31228C20.2431 0.629283 18.9641 1.13728 16.4061 2.15228L4.54013 6.86528C2.49413 7.67828 1.47113 8.08428 1.40613 8.78228C1.39848 8.85341 1.39848 8.92516 1.40613 8.99628C1.46913 9.69528 2.49013 10.1043 4.53413 10.9233C5.45913 11.2943 5.92213 11.4803 6.25413 11.8353C6.29147 11.8753 6.32746 11.9166 6.36213 11.9593C6.66813 12.3393 6.79813 12.8393 7.05913 13.8353L7.54813 15.7023C7.80113 16.6723 7.92813 17.1583 8.26113 17.2243C8.59413 17.2903 8.88313 16.8883 9.46213 16.0833L11.3851 13.4083ZM11.3851 13.4083L11.0681 13.0783C10.7061 12.7003 10.5251 12.5123 10.5251 12.2783C10.5251 12.0443 10.7051 11.8553 11.0681 11.4783L14.6411 7.75428" stroke="#9F9F9F" stroke-width="1.5" stroke-linecap="round" stroke-linejoin="round"/>
</svg>
