<svg width="500" height="445" viewBox="0 0 500 445" fill="none" xmlns="http://www.w3.org/2000/svg">
<circle cx="210" cy="237" r="1" fill="white" fill-opacity="0.55"/>
<circle cx="224" cy="208" r="1" fill="white" fill-opacity="0.55"/>
<circle cx="303" cy="271" r="1" fill="white" fill-opacity="0.55"/>
<circle cx="320" cy="186" r="1" fill="white" fill-opacity="0.55"/>
<circle cx="277" cy="225" r="1" fill="white" fill-opacity="0.55"/>
<circle cx="278" cy="106" r="1" fill="white" fill-opacity="0.55"/>
<circle cx="142" cy="156" r="1" fill="white" fill-opacity="0.55"/>
<circle cx="165" cy="282" r="1" fill="white" fill-opacity="0.55"/>
<circle cx="235" cy="316" r="1" fill="white" fill-opacity="0.55"/>
<circle cx="362" cy="341" r="1" fill="white" fill-opacity="0.55"/>
<circle cx="351" cy="384" r="1" fill="white" fill-opacity="0.55"/>
<circle cx="266" cy="386" r="1" fill="white" fill-opacity="0.55"/>
<circle cx="235" cy="126" r="1" fill="white" fill-opacity="0.55"/>
<circle cx="159" cy="90" r="1" fill="white" fill-opacity="0.55"/>
<circle cx="476" cy="191" r="1" fill="white" fill-opacity="0.55"/>
<circle cx="463" cy="94" r="1" fill="white" fill-opacity="0.55"/>
<circle cx="499" cy="60" r="1" fill="white" fill-opacity="0.55"/>
<circle cx="403" cy="62" r="1" fill="white" fill-opacity="0.55"/>
<circle cx="370" cy="318" r="1" fill="white" fill-opacity="0.55"/>
<circle cx="391" cy="413" r="1" fill="white" fill-opacity="0.55"/>
<circle cx="409" cy="149" r="1" fill="white" fill-opacity="0.55"/>
<circle cx="346" cy="92" r="1" fill="white" fill-opacity="0.55"/>
<circle cx="340" cy="206" r="1" fill="white" fill-opacity="0.55"/>
<circle cx="425" cy="261" r="1" fill="white" fill-opacity="0.55"/>
<circle cx="414" cy="331" r="1" fill="white" fill-opacity="0.55"/>
<circle cx="296" cy="367" r="1" fill="white" fill-opacity="0.55"/>
<circle cx="205" cy="340" r="1" fill="white" fill-opacity="0.55"/>
<circle cx="415" cy="113" r="1" fill="white" fill-opacity="0.55"/>
<circle cx="280" cy="69" r="1" fill="white" fill-opacity="0.55"/>
<circle cx="342" cy="282" r="1" fill="white" fill-opacity="0.55"/>
</svg>
