<svg width="465" height="325" viewBox="0 0 465 325" fill="none" xmlns="http://www.w3.org/2000/svg">
<circle cx="89.7921" cy="74.2695" r="1" transform="rotate(27.5961 89.7921 74.2695)" fill="white" fill-opacity="0.55"/>
<circle cx="115.634" cy="55.054" r="1" transform="rotate(27.5961 115.634 55.054)" fill="white" fill-opacity="0.55"/>
<circle cx="156.462" cy="147.482" r="1" transform="rotate(27.5961 156.462 147.482)" fill="white" fill-opacity="0.55"/>
<circle cx="210.903" cy="80.0275" r="1" transform="rotate(27.5961 210.903 80.0275)" fill="white" fill-opacity="0.55"/>
<circle cx="154.73" cy="94.6716" r="1" transform="rotate(27.5961 154.73 94.6716)" fill="white" fill-opacity="0.55"/>
<circle cx="29.0656" cy="93.3044" r="1" transform="rotate(27.5961 29.0656 93.3044)" fill="white" fill-opacity="0.55"/>
<circle cx="75.3527" cy="155.863" r="1" transform="rotate(27.5961 75.3527 155.863)" fill="white" fill-opacity="0.55"/>
<circle cx="176.323" cy="236.85" r="1" transform="rotate(27.5961 176.323 236.85)" fill="white" fill-opacity="0.55"/>
<circle cx="146.655" cy="269.862" r="1" transform="rotate(27.5961 146.655 269.862)" fill="white" fill-opacity="0.55"/>
<circle cx="70.3996" cy="232.26" r="1" transform="rotate(27.5961 70.3996 232.26)" fill="white" fill-opacity="0.55"/>
<circle cx="346.839" cy="156.724" r="1" transform="rotate(27.5961 346.839 156.724)" fill="white" fill-opacity="0.55"/>
<circle cx="380.253" cy="64.7367" r="1" transform="rotate(27.5961 380.253 64.7367)" fill="white" fill-opacity="0.55"/>
<circle cx="427.907" cy="51.2812" r="1" transform="rotate(27.5961 427.907 51.2812)" fill="white" fill-opacity="0.55"/>
<circle cx="341.902" cy="8.58302" r="1" transform="rotate(27.5961 341.902 8.58302)" fill="white" fill-opacity="0.55"/>
<circle cx="194.068" cy="220.172" r="1" transform="rotate(27.5961 194.068 220.172)" fill="white" fill-opacity="0.55"/>
<circle cx="168.671" cy="314.093" r="1" transform="rotate(27.5961 168.671 314.093)" fill="white" fill-opacity="0.55"/>
<circle cx="306.919" cy="88.4649" r="1" transform="rotate(27.5961 306.919 88.4649)" fill="white" fill-opacity="0.55"/>
<circle cx="277.489" cy="8.76561" r="1" transform="rotate(27.5961 277.489 8.76561)" fill="white" fill-opacity="0.55"/>
<circle cx="219.364" cy="107.017" r="1" transform="rotate(27.5961 219.364 107.017)" fill="white" fill-opacity="0.55"/>
<circle cx="269.216" cy="195.135" r="1" transform="rotate(27.5961 269.216 195.135)" fill="white" fill-opacity="0.55"/>
<circle cx="227.04" cy="252.076" r="1" transform="rotate(27.5961 227.04 252.076)" fill="white" fill-opacity="0.55"/>
<circle cx="105.788" cy="229.318" r="1" transform="rotate(27.5961 105.788 229.318)" fill="white" fill-opacity="0.55"/>
<circle cx="37.6476" cy="163.236" r="1" transform="rotate(27.5961 37.6476 163.236)" fill="white" fill-opacity="0.55"/>
<circle cx="328.911" cy="59.3398" r="1" transform="rotate(27.5961 328.911 59.3398)" fill="white" fill-opacity="0.55"/>
<circle cx="185.931" cy="175.297" r="1" transform="rotate(27.5961 185.931 175.297)" fill="white" fill-opacity="0.55"/>
</svg>
