<svg width="32" height="32" viewBox="0 0 32 32" fill="none" xmlns="http://www.w3.org/2000/svg">
<path d="M5.33268 28.0001C4.59935 28.0001 3.97179 27.7392 3.45002 27.2174C2.92824 26.6956 2.6669 26.0676 2.66602 25.3334V10.6667C2.66602 9.93341 2.92735 9.30586 3.45002 8.78408C3.97268 8.2623 4.60024 8.00097 5.33268 8.00008H10.666V5.33341C10.666 4.60008 10.9274 3.97253 11.45 3.45075C11.9727 2.92897 12.6002 2.66764 13.3327 2.66675H18.666C19.3993 2.66675 20.0273 2.92808 20.55 3.45075C21.0727 3.97341 21.3336 4.60097 21.3327 5.33341V8.00008H26.666C27.3993 8.00008 28.0273 8.26141 28.55 8.78408C29.0727 9.30675 29.3336 9.9343 29.3327 10.6667V25.3334C29.3327 26.0667 29.0718 26.6947 28.55 27.2174C28.0282 27.7401 27.4002 28.001 26.666 28.0001H5.33268ZM5.33268 25.3334H26.666V10.6667H5.33268V25.3334ZM13.3327 8.00008H18.666V5.33341H13.3327V8.00008Z" fill="white"/>
</svg>
