<svg width="32" height="32" viewBox="0 0 32 32" fill="none" xmlns="http://www.w3.org/2000/svg">
<path d="M16.808 4.9873C16.5627 4.84358 16.2835 4.76782 15.9992 4.76782C15.7149 4.76782 15.4357 4.84358 15.1904 4.9873L5.57437 10.6193C5.33364 10.7608 5.13414 10.9628 4.99567 11.2053C4.85721 11.4478 4.78461 11.7222 4.7851 12.0015C4.78558 12.2807 4.85913 12.5549 4.99844 12.7969C5.13774 13.0389 5.33795 13.2403 5.57917 13.3809L15.1936 18.9841C15.4381 19.1266 15.7161 19.2017 15.9992 19.2017C16.2822 19.2017 16.5602 19.1266 16.8048 18.9841L26.4192 13.3809C26.6606 13.2401 26.8609 13.0385 27.0002 12.7961C27.1395 12.5538 27.2129 12.2793 27.213 11.9998C27.2132 11.7203 27.1401 11.4456 27.0011 11.2031C26.8621 10.9606 26.662 10.7588 26.4208 10.6177L16.808 4.9873ZM15.1904 6.8417C15.4355 6.69828 15.7144 6.62269 15.9984 6.62269C16.2824 6.62269 16.5612 6.69828 16.8064 6.8417L25.6128 11.9985L16.8048 17.1329C16.5602 17.2754 16.2822 17.3505 15.9992 17.3505C15.7161 17.3505 15.4381 17.2754 15.1936 17.1329L6.38397 11.9985L15.1904 6.8417ZM4.91197 15.4401L15.2128 21.2369C15.4522 21.3715 15.7222 21.4421 15.9968 21.4421C16.2714 21.4421 16.5414 21.3715 16.7808 21.2369L27.0816 15.4401C27.2364 15.7992 27.2543 16.2026 27.132 16.5741C27.0096 16.9455 26.7555 17.2593 26.4176 17.4561L16.8016 23.0593C16.5572 23.2015 16.2795 23.2764 15.9968 23.2764C15.714 23.2764 15.4363 23.2015 15.192 23.0593L5.57597 17.4561C5.23804 17.2593 4.9839 16.9455 4.86156 16.5741C4.73922 16.2026 4.75715 15.7992 4.91197 15.4401ZM4.91197 19.3649L15.2128 25.1601C15.4522 25.2947 15.7222 25.3653 15.9968 25.3653C16.2714 25.3653 16.5414 25.2947 16.7808 25.1601L27.0816 19.3649C27.2364 19.724 27.2543 20.1274 27.132 20.4989C27.0096 20.8703 26.7555 21.1841 26.4176 21.3809L16.8016 26.9841C16.5572 27.1263 16.2795 27.2012 15.9968 27.2012C15.714 27.2012 15.4363 27.1263 15.192 26.9841L5.57597 21.3809C5.23804 21.1841 4.9839 20.8703 4.86156 20.4989C4.73922 20.1274 4.75715 19.724 4.91197 19.3649Z" fill="white"/>
</svg>
