<svg width="32" height="32" viewBox="0 0 32 32" fill="none" xmlns="http://www.w3.org/2000/svg">
<path d="M10.6667 5.33341C10.6667 6.04066 10.3857 6.71894 9.88562 7.21903C9.38552 7.71913 8.70724 8.00008 8 8.00008C7.29276 8.00008 6.61448 7.71913 6.11438 7.21903C5.61428 6.71894 5.33333 6.04066 5.33333 5.33341C5.33333 4.62617 5.61428 3.94789 6.11438 3.4478C6.61448 2.9477 7.29276 2.66675 8 2.66675C8.70724 2.66675 9.38552 2.9477 9.88562 3.4478C10.3857 3.94789 10.6667 4.62617 10.6667 5.33341ZM6.66667 21.3334V29.3334H4V13.3334C3.99988 12.5447 4.23293 11.7735 4.66987 11.1169C5.1068 10.4602 5.72812 9.94743 6.45569 9.64292C7.18327 9.33841 7.98463 9.2558 8.75902 9.40546C9.53342 9.55513 10.2463 9.93039 10.808 10.4841L13.9733 13.4747L17.0573 10.3907L18.9427 12.2761L14.0267 17.1921L12 15.2801V29.3334H9.33333V21.3334H6.66667ZM8 12.0001C7.64638 12.0001 7.30724 12.1406 7.05719 12.3906C6.80714 12.6407 6.66667 12.9798 6.66667 13.3334V18.6667H9.33333V13.3334C9.33333 12.9798 9.19286 12.6407 8.94281 12.3906C8.69276 12.1406 8.35362 12.0001 8 12.0001ZM25.3333 6.66675H13.3333V4.00008H26.6667C27.0203 4.00008 27.3594 4.14056 27.6095 4.39061C27.8595 4.64065 28 4.97979 28 5.33341V20.0001C28 20.3537 27.8595 20.6928 27.6095 20.9429C27.3594 21.1929 27.0203 21.3334 26.6667 21.3334H22.1013L25.8653 29.3334H22.9187L19.1533 21.3334H13.3333V18.6667H25.3333V6.66675Z" fill="white"/>
</svg>
