<svg width="150" height="150" viewBox="0 0 150 150" fill="none" xmlns="http://www.w3.org/2000/svg">
<g filter="url(#filter0_i_1_3279)">
<path d="M70 2.88675C73.094 1.10042 76.906 1.10042 80 2.88675L134.952 34.6133C138.046 36.3996 139.952 39.7008 139.952 43.2735V106.727C139.952 110.299 138.046 113.6 134.952 115.387L80 147.113C76.906 148.9 73.094 148.9 70 147.113L15.0481 115.387C11.9541 113.6 10.0481 110.299 10.0481 106.726V43.2735C10.0481 39.7008 11.9541 36.3996 15.0481 34.6132L70 2.88675Z" fill="url(#paint0_linear_1_3279)"/>
</g>
<path d="M96.3337 83.0002V63.0002L79.667 53.6255M70.3337 53.6255L53.667 63.0002V83.0002M57.667 89.2508L75.0003 99.0002L85.667 93.0002L92.3337 89.2508" stroke="white" stroke-opacity="0.85" stroke-width="2" stroke-linecap="round" stroke-linejoin="round"/>
<path d="M71 68.0003L67 70.3337V79.667L71 82.0003L75 84.3337L79 82.0003L83 79.667V70.3337L79 68.0003L75 65.667L71 68.0003Z" fill="white" fill-opacity="0.85" stroke="white" stroke-opacity="0.85" stroke-width="2" stroke-linecap="round" stroke-linejoin="round"/>
<path d="M75.0003 65.6668V56.3335M83.0003 79.0002L92.3337 84.3335M67.0003 79.0002L57.667 84.3335" stroke="white" stroke-opacity="0.85" stroke-width="2" stroke-linecap="round" stroke-linejoin="round"/>
<path d="M75 56.3335C77.2091 56.3335 79 54.5426 79 52.3335C79 50.1244 77.2091 48.3335 75 48.3335C72.7909 48.3335 71 50.1244 71 52.3335C71 54.5426 72.7909 56.3335 75 56.3335Z" fill="white" fill-opacity="0.85" stroke="white" stroke-opacity="0.85" stroke-width="2" stroke-linecap="round" stroke-linejoin="round"/>
<path d="M53.667 91.0002C55.8761 91.0002 57.667 89.2094 57.667 87.0002C57.667 84.7911 55.8761 83.0002 53.667 83.0002C51.4579 83.0002 49.667 84.7911 49.667 87.0002C49.667 89.2094 51.4579 91.0002 53.667 91.0002Z" fill="white" fill-opacity="0.85" stroke="white" stroke-opacity="0.85" stroke-width="2" stroke-linecap="round" stroke-linejoin="round"/>
<path d="M96.334 91C98.5431 91 100.334 89.2091 100.334 87C100.334 84.7909 98.5431 83 96.334 83C94.1248 83 92.334 84.7909 92.334 87C92.334 89.2091 94.1248 91 96.334 91Z" fill="white" fill-opacity="0.85" stroke="white" stroke-opacity="0.85" stroke-width="2" stroke-linecap="round" stroke-linejoin="round"/>
<defs>
<filter id="filter0_i_1_3279" x="10.0479" y="1.54712" width="129.904" height="150.906" filterUnits="userSpaceOnUse" color-interpolation-filters="sRGB">
<feFlood flood-opacity="0" result="BackgroundImageFix"/>
<feBlend mode="normal" in="SourceGraphic" in2="BackgroundImageFix" result="shape"/>
<feColorMatrix in="SourceAlpha" type="matrix" values="0 0 0 0 0 0 0 0 0 0 0 0 0 0 0 0 0 0 127 0" result="hardAlpha"/>
<feOffset dy="4"/>
<feGaussianBlur stdDeviation="6"/>
<feComposite in2="hardAlpha" operator="arithmetic" k2="-1" k3="1"/>
<feColorMatrix type="matrix" values="0 0 0 0 0.0666667 0 0 0 0 0.0352941 0 0 0 0 0.258824 0 0 0 0.6 0"/>
<feBlend mode="normal" in2="shape" result="effect1_innerShadow_1_3279"/>
</filter>
<linearGradient id="paint0_linear_1_3279" x1="75" y1="0" x2="75" y2="150" gradientUnits="userSpaceOnUse">
<stop stop-color="#110942"/>
<stop offset="1" stop-color="#2B17A8"/>
</linearGradient>
</defs>
</svg>
