<svg width="150" height="150" viewBox="0 0 150 150" fill="none" xmlns="http://www.w3.org/2000/svg">
<g filter="url(#filter0_i_1_3298)">
<path d="M70 2.88675C73.094 1.10042 76.906 1.10042 80 2.88675L134.952 34.6133C138.046 36.3996 139.952 39.7008 139.952 43.2735V106.727C139.952 110.299 138.046 113.6 134.952 115.387L80 147.113C76.906 148.9 73.094 148.9 70 147.113L15.0481 115.387C11.9541 113.6 10.0481 110.299 10.0481 106.726V43.2735C10.0481 39.7008 11.9541 36.3996 15.0481 34.6132L70 2.88675Z" fill="url(#paint0_linear_1_3298)"/>
</g>
<path d="M83.0003 96.3332C82.2448 96.3332 81.6119 96.0772 81.1017 95.5652C80.5914 95.0532 80.3354 94.4203 80.3337 93.6665C80.3319 92.9127 80.5879 92.2798 81.1017 91.7678C81.6154 91.2558 82.2483 90.9998 83.0003 90.9998H87.267L80.667 84.3998C80.1337 83.8665 79.8785 83.2336 79.9017 82.5012C79.9248 81.7687 80.2021 81.1349 80.7337 80.5998C81.2652 80.0647 81.899 79.7981 82.635 79.7998C83.371 79.8016 84.0039 80.0683 84.5337 80.5998L91.0003 87.1332V82.9998C91.0003 82.2443 91.2563 81.6114 91.7683 81.1012C92.2803 80.5909 92.9132 80.3349 93.667 80.3332C94.4208 80.3314 95.0545 80.5874 95.5683 81.1012C96.0821 81.6149 96.3372 82.2478 96.3337 82.9998V93.6665C96.3337 94.4221 96.0777 95.0558 95.5657 95.5678C95.0537 96.0798 94.4208 96.3349 93.667 96.3332H83.0003ZM54.467 95.5332C53.9781 95.0443 53.7337 94.4221 53.7337 93.6665C53.7337 92.9109 53.9781 92.2887 54.467 91.7998L87.267 58.9998H83.0003C82.2448 58.9998 81.6119 58.7438 81.1017 58.2318C80.5914 57.7198 80.3354 57.0869 80.3337 56.3332C80.3319 55.5794 80.5879 54.9465 81.1017 54.4345C81.6154 53.9225 82.2483 53.6665 83.0003 53.6665H93.667C94.4226 53.6665 95.0563 53.9225 95.5683 54.4345C96.0803 54.9465 96.3354 55.5794 96.3337 56.3332V66.9998C96.3337 67.7554 96.0777 68.3892 95.5657 68.9012C95.0537 69.4132 94.4208 69.6683 93.667 69.6665C92.9132 69.6647 92.2803 69.4087 91.7683 68.8985C91.2563 68.3883 91.0003 67.7554 91.0003 66.9998V62.7332L58.2003 95.5332C57.7114 96.0221 57.0892 96.2665 56.3337 96.2665C55.5781 96.2665 54.9559 96.0221 54.467 95.5332ZM54.4003 58.1998C53.9114 57.7109 53.667 57.0887 53.667 56.3332C53.667 55.5776 53.9114 54.9554 54.4003 54.4665C54.8892 53.9776 55.4999 53.7332 56.2323 53.7332C56.9648 53.7332 57.5985 53.9776 58.1337 54.4665L69.3337 65.5998C69.8225 66.0887 70.0785 66.7003 70.1017 67.4345C70.1248 68.1687 69.8688 68.8016 69.3337 69.3332C68.8448 69.8221 68.2225 70.0665 67.467 70.0665C66.7114 70.0665 66.0892 69.8221 65.6003 69.3332L54.4003 58.1998Z" fill="white" fill-opacity="0.85"/>
<defs>
<filter id="filter0_i_1_3298" x="10.0479" y="1.54712" width="129.904" height="150.906" filterUnits="userSpaceOnUse" color-interpolation-filters="sRGB">
<feFlood flood-opacity="0" result="BackgroundImageFix"/>
<feBlend mode="normal" in="SourceGraphic" in2="BackgroundImageFix" result="shape"/>
<feColorMatrix in="SourceAlpha" type="matrix" values="0 0 0 0 0 0 0 0 0 0 0 0 0 0 0 0 0 0 127 0" result="hardAlpha"/>
<feOffset dy="4"/>
<feGaussianBlur stdDeviation="6"/>
<feComposite in2="hardAlpha" operator="arithmetic" k2="-1" k3="1"/>
<feColorMatrix type="matrix" values="0 0 0 0 0.0666667 0 0 0 0 0.0352941 0 0 0 0 0.258824 0 0 0 0.6 0"/>
<feBlend mode="normal" in2="shape" result="effect1_innerShadow_1_3298"/>
</filter>
<linearGradient id="paint0_linear_1_3298" x1="75" y1="0" x2="75" y2="150" gradientUnits="userSpaceOnUse">
<stop stop-color="#110942"/>
<stop offset="1" stop-color="#2B17A8"/>
</linearGradient>
</defs>
</svg>
