<svg width="150" height="150" viewBox="0 0 150 150" fill="none" xmlns="http://www.w3.org/2000/svg">
<g filter="url(#filter0_i_1_3294)">
<path d="M70 2.88675C73.094 1.10042 76.906 1.10042 80 2.88675L134.952 34.6133C138.046 36.3996 139.952 39.7008 139.952 43.2735V106.727C139.952 110.299 138.046 113.6 134.952 115.387L80 147.113C76.906 148.9 73.094 148.9 70 147.113L15.0481 115.387C11.9541 113.6 10.0481 110.299 10.0481 106.726V43.2735C10.0481 39.7008 11.9541 36.3996 15.0481 34.6132L70 2.88675Z" fill="url(#paint0_linear_1_3294)"/>
</g>
<path fill-rule="evenodd" clip-rule="evenodd" d="M52.008 56.5519C51 57.9866 51 62.2533 51 70.7786V74.9759C51 90.0106 62.304 97.3092 69.3973 100.405C71.32 101.245 72.2827 101.667 75 101.667C77.72 101.667 78.68 101.245 80.6027 100.405C87.696 97.3066 99 90.0132 99 74.9759V70.7786C99 62.2506 99 57.9866 97.992 56.5519C96.9867 55.1199 92.9787 53.7466 84.96 51.0026L83.432 50.4799C79.2533 49.0479 77.1653 48.3333 75 48.3333C72.8347 48.3333 70.7467 49.0479 66.568 50.4799L65.04 50.9999C57.0213 53.7466 53.0133 55.1199 52.008 56.5519ZM83.16 70.9999C83.3349 70.8038 83.4695 70.5752 83.5561 70.3271C83.6426 70.0789 83.6795 69.8162 83.6645 69.5538C83.6495 69.2915 83.583 69.0346 83.4688 68.798C83.3545 68.5613 83.1948 68.3495 82.9987 68.1746C82.8026 67.9997 82.5739 67.8651 82.3258 67.7785C82.0777 67.692 81.8149 67.6551 81.5526 67.6701C81.2902 67.6851 81.0334 67.7516 80.7967 67.8658C80.5601 67.9801 80.3483 68.1398 80.1733 68.3359L72.144 77.3333L69.824 74.7359C69.4694 74.3441 68.9742 74.1086 68.4465 74.0807C67.9188 74.0528 67.4016 74.2349 67.0077 74.5872C66.6139 74.9395 66.3754 75.4333 66.3445 75.9609C66.3136 76.4884 66.4927 77.0067 66.8427 77.4026L70.6507 81.6693C70.8383 81.8794 71.0682 82.0476 71.3253 82.1627C71.5824 82.2778 71.8609 82.3374 72.1427 82.3374C72.4244 82.3374 72.7029 82.2778 72.96 82.1627C73.2172 82.0476 73.4471 81.8794 73.6347 81.6693L83.16 70.9999Z" fill="white" fill-opacity="0.85"/>
<defs>
<filter id="filter0_i_1_3294" x="10.0479" y="1.54712" width="129.904" height="150.906" filterUnits="userSpaceOnUse" color-interpolation-filters="sRGB">
<feFlood flood-opacity="0" result="BackgroundImageFix"/>
<feBlend mode="normal" in="SourceGraphic" in2="BackgroundImageFix" result="shape"/>
<feColorMatrix in="SourceAlpha" type="matrix" values="0 0 0 0 0 0 0 0 0 0 0 0 0 0 0 0 0 0 127 0" result="hardAlpha"/>
<feOffset dy="4"/>
<feGaussianBlur stdDeviation="6"/>
<feComposite in2="hardAlpha" operator="arithmetic" k2="-1" k3="1"/>
<feColorMatrix type="matrix" values="0 0 0 0 0.0666667 0 0 0 0 0.0352941 0 0 0 0 0.258824 0 0 0 0.6 0"/>
<feBlend mode="normal" in2="shape" result="effect1_innerShadow_1_3294"/>
</filter>
<linearGradient id="paint0_linear_1_3294" x1="75" y1="0" x2="75" y2="150" gradientUnits="userSpaceOnUse">
<stop stop-color="#110942"/>
<stop offset="1" stop-color="#2B17A8"/>
</linearGradient>
</defs>
</svg>
