<svg width="150" height="150" viewBox="0 0 150 150" fill="none" xmlns="http://www.w3.org/2000/svg">
<g filter="url(#filter0_i_1_3289)">
<path d="M70 2.88675C73.094 1.10042 76.906 1.10042 80 2.88675L134.952 34.6133C138.046 36.3996 139.952 39.7008 139.952 43.2735V106.727C139.952 110.299 138.046 113.6 134.952 115.387L80 147.113C76.906 148.9 73.094 148.9 70 147.113L15.0481 115.387C11.9541 113.6 10.0481 110.299 10.0481 106.726V43.2735C10.0481 39.7008 11.9541 36.3996 15.0481 34.6132L70 2.88675Z" fill="url(#paint0_linear_1_3289)"/>
</g>
<path d="M98.9465 74.4719C98.8461 73.9783 98.608 73.5233 98.2597 73.1594C97.9114 72.7956 97.4672 72.5378 96.9785 72.4159L78.6852 67.8399L85.4505 52.0506C85.6852 51.5025 85.7295 50.8916 85.5763 50.3154C85.423 49.7392 85.0811 49.231 84.6052 48.8719C84.1293 48.5111 83.5458 48.3212 82.9487 48.3328C82.3517 48.3444 81.7759 48.5569 81.3145 48.9359L51.9812 72.9359C51.5985 73.2489 51.3104 73.6621 51.1491 74.1293C50.9877 74.5966 50.9593 75.0995 51.0672 75.5819C51.1751 76.0643 51.4149 76.5073 51.76 76.8613C52.105 77.2153 52.5417 77.4664 53.0212 77.5866L70.9385 82.0692L62.0185 97.6799C61.7875 98.0853 61.667 98.5443 61.6689 99.0108C61.6708 99.4774 61.7951 99.9354 62.0294 100.339C62.2637 100.742 62.5997 101.077 63.004 101.31C63.4082 101.543 63.8666 101.666 64.3332 101.667C64.9101 101.667 65.4716 101.479 65.9332 101.133L97.9331 77.1333C98.3363 76.8308 98.6455 76.4202 98.8248 75.9492C99.0042 75.4781 99.0463 74.9659 98.9465 74.4719Z" fill="white" fill-opacity="0.85"/>
<defs>
<filter id="filter0_i_1_3289" x="10.0479" y="1.54712" width="129.904" height="150.906" filterUnits="userSpaceOnUse" color-interpolation-filters="sRGB">
<feFlood flood-opacity="0" result="BackgroundImageFix"/>
<feBlend mode="normal" in="SourceGraphic" in2="BackgroundImageFix" result="shape"/>
<feColorMatrix in="SourceAlpha" type="matrix" values="0 0 0 0 0 0 0 0 0 0 0 0 0 0 0 0 0 0 127 0" result="hardAlpha"/>
<feOffset dy="4"/>
<feGaussianBlur stdDeviation="6"/>
<feComposite in2="hardAlpha" operator="arithmetic" k2="-1" k3="1"/>
<feColorMatrix type="matrix" values="0 0 0 0 0.0666667 0 0 0 0 0.0352941 0 0 0 0 0.258824 0 0 0 0.6 0"/>
<feBlend mode="normal" in2="shape" result="effect1_innerShadow_1_3289"/>
</filter>
<linearGradient id="paint0_linear_1_3289" x1="75" y1="0" x2="75" y2="150" gradientUnits="userSpaceOnUse">
<stop stop-color="#110942"/>
<stop offset="1" stop-color="#2B17A8"/>
</linearGradient>
</defs>
</svg>
