<svg width="40" height="40" viewBox="0 0 40 40" fill="none" xmlns="http://www.w3.org/2000/svg">
<circle cx="20" cy="20" r="20" fill="#FF00B8" fill-opacity="0.1"/>
<path d="M20.56 28.82C20.3968 28.9372 20.201 29.0003 20 29.0003C19.7991 29.0003 19.6032 28.9372 19.44 28.82C14.611 25.378 9.48602 18.298 14.667 13.182C16.0894 11.7828 18.0049 10.9991 20 11C22 11 23.919 11.785 25.333 13.181C30.514 18.297 25.389 25.376 20.56 28.82Z" stroke="#FF00B8" stroke-width="1.5" stroke-linecap="round" stroke-linejoin="round"/>
<path d="M20 20C20.5304 20 21.0391 19.7893 21.4142 19.4142C21.7893 19.0391 22 18.5304 22 18C22 17.4696 21.7893 16.9609 21.4142 16.5858C21.0391 16.2107 20.5304 16 20 16C19.4696 16 18.9609 16.2107 18.5858 16.5858C18.2107 16.9609 18 17.4696 18 18C18 18.5304 18.2107 19.0391 18.5858 19.4142C18.9609 19.7893 19.4696 20 20 20Z" stroke="#FF00B8" stroke-width="1.5" stroke-linecap="round" stroke-linejoin="round"/>
</svg>
