<svg width="40" height="40" viewBox="0 0 40 40" fill="none" xmlns="http://www.w3.org/2000/svg">
<circle cx="20" cy="20" r="20" fill="#FF00B8" fill-opacity="0.1"/>
<path d="M16.3879 10.4796L15.5275 10.7388C14.7614 10.9698 14.0772 11.4149 13.5555 12.0216C13.0338 12.6284 12.6963 13.3715 12.5827 14.1636C12.2263 16.6452 13.0231 19.5468 14.9443 22.8744C16.8607 26.1936 18.9703 28.332 21.2923 29.268C22.0384 29.5687 22.8551 29.6488 23.6454 29.4988C24.4357 29.3489 25.1663 28.9751 25.7503 28.422L26.4007 27.8052C26.8231 27.4055 27.0859 26.866 27.1404 26.2871C27.1949 25.7082 27.0374 25.1291 26.6971 24.6576L25.0699 22.4016C24.8499 22.097 24.5401 21.8689 24.184 21.7493C23.8278 21.6296 23.4432 21.6244 23.0839 21.7344L20.6227 22.4868L20.5591 22.4988C20.2879 22.5384 19.6615 21.9516 18.8815 20.6004C18.0655 19.1868 17.8975 18.36 18.1219 18.1464L19.3735 16.9788C19.8308 16.5518 20.1431 15.9926 20.2668 15.3794C20.3905 14.7662 20.3194 14.1296 20.0635 13.5588L19.2691 11.7936C19.0302 11.2624 18.6064 10.8362 18.0765 10.5945C17.5466 10.3527 16.9457 10.3119 16.3879 10.4796ZM18.1771 12.2856L18.9691 14.0508C19.1228 14.3932 19.1657 14.775 19.0916 15.143C19.0176 15.5109 18.8305 15.8465 18.5563 16.1028L17.3011 17.2716C16.4971 18.0324 16.7635 19.3308 17.8435 21.2004C18.8587 22.9596 19.7851 23.8284 20.7811 23.6772L20.9299 23.646L23.4355 22.8816C23.5553 22.8448 23.6836 22.8464 23.8024 22.8863C23.9212 22.9261 24.0245 23.0021 24.0979 23.1036L25.7251 25.3596C25.8955 25.5953 25.9745 25.8849 25.9473 26.1746C25.9202 26.4642 25.7888 26.734 25.5775 26.934L24.9259 27.5508C24.5087 27.9456 23.987 28.2124 23.4226 28.3194C22.8583 28.4264 22.2751 28.3691 21.7423 28.1544C19.7047 27.3336 17.7787 25.3812 15.9847 22.2744C14.1859 19.1604 13.4575 16.512 13.7707 14.334C13.8518 13.7681 14.0929 13.2372 14.4655 12.8037C14.8382 12.3702 15.327 12.0522 15.8743 11.8872L16.7347 11.628C17.0137 11.5442 17.3136 11.5647 17.5785 11.6857C17.8435 11.8067 18.0554 12.0199 18.1747 12.2856" fill="#FF00B8"/>
</svg>
