<svg width="40" height="40" viewBox="0 0 40 40" fill="none" xmlns="http://www.w3.org/2000/svg">
<circle cx="20" cy="20" r="20" fill="#FF00B8" fill-opacity="0.1"/>
<g clip-path="url(#clip0_1_4781)">
<path d="M26.978 12.9029L16.0728 21.9909M18.642 24.5715L21.1311 27.0492C21.284 27.2058 21.4751 27.3199 21.6856 27.38C21.896 27.4402 22.1186 27.4443 22.3311 27.392C22.5448 27.3421 22.7421 27.2381 22.904 27.09C23.0659 26.9419 23.187 26.7547 23.2557 26.5463L27.3426 14.2949C27.4281 14.0654 27.4458 13.8162 27.3937 13.577C27.3416 13.3377 27.2219 13.1184 27.0487 12.9453C26.8756 12.7721 26.6563 12.6524 26.4171 12.6003C26.1778 12.5482 25.9286 12.566 25.6991 12.6515L13.4477 16.7395C13.2321 16.813 13.0401 16.9428 12.8914 17.1154C12.7428 17.288 12.6429 17.4971 12.602 17.7212C12.56 17.9252 12.5693 18.1364 12.6292 18.3359C12.689 18.5354 12.7975 18.7168 12.9448 18.864L16.0728 21.992L15.97 25.9532L18.642 24.5715Z" stroke="#FF00B8" stroke-linecap="round" stroke-linejoin="round"/>
</g>
<defs>
<clipPath id="clip0_1_4781">
<rect width="16" height="16" fill="white" transform="translate(12 12)"/>
</clipPath>
</defs>
</svg>
