<svg width="41" height="40" viewBox="0 0 41 40" fill="none" xmlns="http://www.w3.org/2000/svg">
<path opacity="0.2" d="M38 8.75V28.75C38 29.413 37.7366 30.0489 37.2678 30.5178C36.7989 30.9866 36.163 31.25 35.5 31.25H11.75V23.75H20.5V16.25H29.25V8.75H38Z" fill="url(#paint0_linear_7_5177)"/>
<path d="M39.25 8.75C39.25 9.08152 39.1183 9.39946 38.8839 9.63388C38.6495 9.8683 38.3315 10 38 10H30.5V16.25C30.5 16.5815 30.3683 16.8995 30.1339 17.1339C29.8995 17.3683 29.5815 17.5 29.25 17.5H21.75V23.75C21.75 24.0815 21.6183 24.3995 21.3839 24.6339C21.1495 24.8683 20.8315 25 20.5 25H13V31.25C13 31.5815 12.8683 31.8995 12.6339 32.1339C12.3995 32.3683 12.0815 32.5 11.75 32.5H3C2.66848 32.5 2.35054 32.3683 2.11612 32.1339C1.8817 31.8995 1.75 31.5815 1.75 31.25C1.75 30.9185 1.8817 30.6005 2.11612 30.3661C2.35054 30.1317 2.66848 30 3 30H10.5V23.75C10.5 23.4185 10.6317 23.1005 10.8661 22.8661C11.1005 22.6317 11.4185 22.5 11.75 22.5H19.25V16.25C19.25 15.9185 19.3817 15.6005 19.6161 15.3661C19.8505 15.1317 20.1685 15 20.5 15H28V8.75C28 8.41848 28.1317 8.10054 28.3661 7.86612C28.6005 7.6317 28.9185 7.5 29.25 7.5H38C38.3315 7.5 38.6495 7.6317 38.8839 7.86612C39.1183 8.10054 39.25 8.41848 39.25 8.75Z" fill="url(#paint1_linear_7_5177)"/>
<defs>
<linearGradient id="paint0_linear_7_5177" x1="24.875" y1="8.75" x2="24.875" y2="31.25" gradientUnits="userSpaceOnUse">
<stop offset="0.3125" stop-color="#FF00B8"/>
<stop offset="1" stop-color="#6D05B8"/>
</linearGradient>
<linearGradient id="paint1_linear_7_5177" x1="20.5" y1="7.5" x2="20.5" y2="32.5" gradientUnits="userSpaceOnUse">
<stop offset="0.3125" stop-color="#FF00B8"/>
<stop offset="1" stop-color="#6D05B8"/>
</linearGradient>
</defs>
</svg>
