<svg width="24" height="24" viewBox="0 0 24 24" fill="none" xmlns="http://www.w3.org/2000/svg">
<path d="M4.16678 0C3.06171 0 2.0019 0.438987 1.2205 1.22039C0.439097 2.00179 0.00010999 3.0616 0.00010999 4.16667V9.16667C0.00010999 9.38768 0.0879074 9.59964 0.244188 9.75592C0.400468 9.9122 0.61243 10 0.833443 10C1.05446 10 1.26642 9.9122 1.4227 9.75592C1.57898 9.59964 1.66678 9.38768 1.66678 9.16667V4.16667C1.66678 3.50363 1.93017 2.86774 2.39901 2.3989C2.86785 1.93006 3.50374 1.66667 4.16678 1.66667H12.0001V8.5C12.0001 10.4333 13.5668 12 15.5001 12H22.3334V19.8333C22.3334 20.4964 22.07 21.1323 21.6012 21.6011C21.1324 22.0699 20.4965 22.3333 19.8334 22.3333H14.8334C14.6124 22.3333 14.4005 22.4211 14.2442 22.5774C14.0879 22.7337 14.0001 22.9457 14.0001 23.1667C14.0001 23.3877 14.0879 23.5996 14.2442 23.7559C14.4005 23.9122 14.6124 24 14.8334 24H19.8334C20.9385 24 21.9983 23.561 22.7797 22.7796C23.5611 21.9982 24.0001 20.9384 24.0001 19.8333V4.16667C24.0001 3.0616 23.5611 2.00179 22.7797 1.22039C21.9983 0.438987 20.9385 0 19.8334 0H4.16678ZM13.6668 8.5V1.66667H19.8334C20.4965 1.66667 21.1324 1.93006 21.6012 2.3989C22.07 2.86774 22.3334 3.50363 22.3334 4.16667V10.3333H15.5001C15.0139 10.3333 14.5476 10.1402 14.2037 9.79636C13.8599 9.45255 13.6668 8.98623 13.6668 8.5ZM0.00010999 14.8333C0.00010999 15.2933 0.373443 15.6667 0.833443 15.6667H7.15478L0.24411 22.5773C0.166718 22.6547 0.105327 22.7466 0.0634422 22.8477C0.0215578 22.9488 0 23.0572 0 23.1667C0 23.2761 0.0215578 23.3845 0.0634422 23.4856C0.105327 23.5867 0.166718 23.6786 0.24411 23.756C0.321502 23.8334 0.41338 23.8948 0.514498 23.9367C0.615616 23.9786 0.723994 24.0001 0.833443 24.0001C0.942893 24.0001 1.05127 23.9786 1.15239 23.9367C1.25351 23.8948 1.34538 23.8334 1.42278 23.756L8.33344 16.8453V23.1667C8.33344 23.3877 8.42124 23.5996 8.57752 23.7559C8.7338 23.9122 8.94576 24 9.16678 24C9.38779 24 9.59975 23.9122 9.75603 23.7559C9.91231 23.5996 10.0001 23.3877 10.0001 23.1667V14.8333C10.0001 14.3733 9.62678 14 9.16678 14H0.833443C0.373443 14 0.00010999 14.3733 0.00010999 14.8333Z" fill="#F1DFFD"/>
</svg>
