<svg width="28" height="28" viewBox="0 0 28 28" fill="none" xmlns="http://www.w3.org/2000/svg">
<path fill-rule="evenodd" clip-rule="evenodd" d="M12.667 3.33329C12.1417 3.33329 11.6216 3.43676 11.1363 3.63777C10.651 3.83879 10.21 4.13343 9.83856 4.50487C9.46713 4.8763 9.17249 5.31726 8.97147 5.80256C8.77045 6.28786 8.66699 6.808 8.66699 7.33329C8.66699 7.85858 8.77045 8.37872 8.97147 8.86403C9.17249 9.34933 9.46713 9.79029 9.83856 10.1617C10.21 10.5332 10.651 10.8278 11.1363 11.0288C11.6216 11.2298 12.1417 11.3333 12.667 11.3333C13.7279 11.3333 14.7453 10.9119 15.4954 10.1617C16.2456 9.41157 16.667 8.39416 16.667 7.33329C16.667 6.27243 16.2456 5.25501 15.4954 4.50487C14.7453 3.75472 13.7279 3.33329 12.667 3.33329ZM6.00033 7.33329C6.00033 5.56518 6.7027 3.86949 7.95295 2.61925C9.20319 1.369 10.8989 0.666626 12.667 0.666626C14.4351 0.666626 16.1308 1.369 17.381 2.61925C18.6313 3.86949 19.3337 5.56518 19.3337 7.33329C19.3337 9.1014 18.6313 10.7971 17.381 12.0473C16.1308 13.2976 14.4351 14 12.667 14C10.8989 14 9.20319 13.2976 7.95295 12.0473C6.7027 10.7971 6.00033 9.1014 6.00033 7.33329ZM3.88433 21.468C3.45366 22.0146 3.33366 22.428 3.33366 22.6666C3.33366 22.8293 3.38299 23.0013 3.67366 23.2346C4.00566 23.5013 4.58299 23.7773 5.46566 24.0106C7.22299 24.4773 9.74833 24.6666 12.667 24.6666C12.963 24.6666 13.2554 24.6644 13.5443 24.66C13.8979 24.6552 14.239 24.7911 14.4924 25.0378C14.7458 25.2844 14.8909 25.6217 14.8957 25.9753C14.9004 26.3289 14.7645 26.6699 14.5179 26.9234C14.2712 27.1768 13.9339 27.3219 13.5803 27.3266C13.2781 27.3311 12.9737 27.3333 12.667 27.3333C9.69499 27.3333 6.88699 27.1466 4.78299 26.5893C3.73633 26.312 2.75099 25.9146 2.00433 25.3146C1.21366 24.68 0.666992 23.7933 0.666992 22.6666C0.666992 21.6173 1.14433 20.636 1.79233 19.8146C2.45099 18.9813 3.36166 18.2146 4.42966 17.5613C6.56699 16.26 9.47366 15.3333 12.667 15.3333C13.2634 15.3333 13.8483 15.3644 14.4217 15.4266C14.7733 15.4639 15.0958 15.6394 15.3181 15.9145C15.5404 16.1895 15.6443 16.5416 15.607 16.8933C15.5697 17.245 15.3942 17.5674 15.1191 17.7897C14.8441 18.012 14.492 18.1159 14.1403 18.0786C13.6594 18.0262 13.1683 18 12.667 18C9.96966 18 7.54299 18.7866 5.81899 19.8386C4.95633 20.364 4.30433 20.9346 3.88433 21.468ZM22.4217 16.7346C22.1482 16.6435 21.8525 16.6435 21.579 16.7346L17.579 18.068C17.3134 18.1564 17.0824 18.3262 16.9187 18.5534C16.755 18.7805 16.6669 19.0533 16.667 19.3333V21.5613C16.6668 22.9875 17.1925 24.3636 18.1436 25.4263C19.0947 26.4891 20.4042 27.1638 21.8217 27.3213C21.9417 27.3346 22.0608 27.3346 22.179 27.3213C23.5964 27.1638 24.906 26.4891 25.857 25.4263C26.8081 24.3636 27.3339 22.9875 27.3337 21.5613V19.3333C27.3337 19.0533 27.2457 18.7805 27.082 18.5534C26.9183 18.3262 26.6873 18.1564 26.4217 18.068L22.4217 16.7346ZM19.3337 21.5613V20.2946L22.0003 19.4053L24.667 20.2946V21.5613C24.667 23.1173 23.527 24.428 22.0003 24.656C21.2589 24.5454 20.5819 24.1723 20.0925 23.6046C19.6031 23.0368 19.3338 22.3122 19.3337 21.5626V21.5613Z" fill="#F1DFFD"/>
</svg>
