<svg width="28" height="28" viewBox="0 0 28 28" fill="none" xmlns="http://www.w3.org/2000/svg">
<path d="M13.9997 26.6667C17.3591 26.6667 20.5809 25.3322 22.9564 22.9567C25.3318 20.5813 26.6663 17.3595 26.6663 14C26.6663 10.6406 25.3318 7.41882 22.9564 5.04335C20.5809 2.66789 17.3591 1.33337 13.9997 1.33337C10.6403 1.33337 7.41845 2.66789 5.04299 5.04335C2.66753 7.41882 1.33301 10.6406 1.33301 14C1.33301 17.3595 2.66753 20.5813 5.04299 22.9567C7.41845 25.3322 10.6403 26.6667 13.9997 26.6667Z" stroke="#F1DFFD" stroke-width="1.5" stroke-linecap="round" stroke-linejoin="round"/>
<path d="M10 17.244C10.0851 18.2253 10.5518 19.134 11.2998 19.7748C12.0478 20.4156 13.0173 20.7373 14 20.6707C17.2267 20.6707 18 18.8174 18 17.244C18 15.6707 16.6667 14.004 14 14.004C11.3333 14.004 10 12.9507 10 10.804C10.0249 10.3102 10.1494 9.82648 10.366 9.38199C10.5826 8.9375 10.8869 8.54142 11.2606 8.21757C11.6343 7.89373 12.0696 7.64881 12.5404 7.49754C13.0111 7.34628 13.5076 7.2918 14 7.33737C14.9834 7.29503 15.9456 7.6306 16.6894 8.27522C17.4332 8.91984 17.9021 9.82465 18 10.804M14 22.6667V20.9334M14 5.33337V7.33204" stroke="#F1DFFD" stroke-width="1.5" stroke-linecap="round" stroke-linejoin="round"/>
</svg>
