<svg width="26" height="26" viewBox="0 0 26 26" fill="none" xmlns="http://www.w3.org/2000/svg">
<path d="M24.7333 14.3333C24.4918 13.9143 24.1409 13.5689 23.7181 13.3341C23.2954 13.0992 22.8167 12.9837 22.3333 13H19.6667C18.9594 13 18.2811 13.281 17.781 13.781C17.281 14.2811 17 14.9594 17 15.6667C17 16.3739 17.281 17.0522 17.781 17.5523C18.2811 18.0524 18.9594 18.3333 19.6667 18.3333H22.3333C23.0406 18.3333 23.7189 18.6143 24.219 19.1144C24.719 19.6145 25 20.2928 25 21C25 21.7072 24.719 22.3855 24.219 22.8856C23.7189 23.3857 23.0406 23.6667 22.3333 23.6667H19.6667C19.1833 23.6829 18.7047 23.5675 18.2819 23.3326C17.8591 23.0977 17.5082 22.7523 17.2667 22.3333M21 11.6667V25M6.33333 3.66667C6.33333 4.37391 6.05238 5.05219 5.55229 5.55229C5.05219 6.05238 4.37391 6.33333 3.66667 6.33333C2.95942 6.33333 2.28115 6.05238 1.78105 5.55229C1.28095 5.05219 1 4.37391 1 3.66667C1 2.95942 1.28095 2.28115 1.78105 1.78105C2.28115 1.28095 2.95942 1 3.66667 1C4.37391 1 5.05219 1.28095 5.55229 1.78105C6.05238 2.28115 6.33333 2.95942 6.33333 3.66667ZM6.33333 3.66667H17M6.33333 3.66667V14.3333C6.33333 15.3942 6.75476 16.4116 7.50491 17.1618C8.25505 17.9119 9.27247 18.3333 10.3333 18.3333H11.6667M17 3.66667C17 4.37391 17.281 5.05219 17.781 5.55229C18.2811 6.05238 18.9594 6.33333 19.6667 6.33333C20.3739 6.33333 21.0522 6.05238 21.5523 5.55229C22.0524 5.05219 22.3333 4.37391 22.3333 3.66667C22.3333 2.95942 22.0524 2.28115 21.5523 1.78105C21.0522 1.28095 20.3739 1 19.6667 1C18.9594 1 18.2811 1.28095 17.781 1.78105C17.281 2.28115 17 2.95942 17 3.66667Z" stroke="#F1DFFD" stroke-width="2" stroke-linecap="round" stroke-linejoin="round"/>
</svg>
