<svg width="32" height="32" viewBox="0 0 32 32" fill="none" xmlns="http://www.w3.org/2000/svg">
<path d="M3.09841 15.1988C3.25588 15.3173 3.43517 15.4036 3.62602 15.4528C3.81687 15.502 4.01554 15.5131 4.21068 15.4855C4.40583 15.4578 4.59361 15.392 4.7633 15.2918C4.933 15.1916 5.08127 15.0589 5.19966 14.9013C5.75852 14.1559 6.48328 13.5508 7.31653 13.1341C8.14979 12.7174 9.06864 12.5005 10.0003 12.5005C10.9319 12.5005 11.8508 12.7174 12.684 13.1341C13.5173 13.5508 14.242 14.1559 14.8009 14.9013C15.0398 15.2194 15.3952 15.4295 15.789 15.4855C16.1829 15.5416 16.5828 15.4389 16.9009 15.2C17.0134 15.1147 17.1136 15.0142 17.1984 14.9013C17.7573 14.1559 18.482 13.5508 19.3153 13.1341C20.1485 12.7174 21.0674 12.5005 21.999 12.5005C22.9307 12.5005 23.8495 12.7174 24.6828 13.1341C25.516 13.5508 26.2408 14.1559 26.7997 14.9013C26.9169 15.0616 27.0647 15.1971 27.2347 15.2998C27.4047 15.4026 27.5934 15.4705 27.7898 15.4998C27.9863 15.529 28.1866 15.519 28.3791 15.4702C28.5716 15.4214 28.7525 15.3349 28.9113 15.2156C29.0702 15.0963 29.2037 14.9467 29.3043 14.7755C29.4048 14.6042 29.4703 14.4146 29.497 14.2178C29.5237 14.021 29.5111 13.8209 29.4598 13.629C29.4086 13.4371 29.3197 13.2573 29.1984 13.1C28.364 11.9828 27.2813 11.0748 26.0359 10.4475C26.5809 9.70213 26.9088 8.82037 26.9833 7.9C27.0579 6.97962 26.8761 6.05659 26.4581 5.23322C26.0401 4.40985 25.4023 3.71831 24.6153 3.23525C23.8284 2.75219 22.923 2.49649 21.9997 2.49649C21.0763 2.49649 20.1709 2.75219 19.384 3.23525C18.597 3.71831 17.9592 4.40985 17.5412 5.23322C17.1233 6.05659 16.9414 6.97962 17.016 7.9C17.0905 8.82037 17.4184 9.70213 17.9634 10.4475C17.2516 10.8045 16.5911 11.2556 15.9997 11.7888C15.4083 11.2552 14.7478 10.8036 14.0359 10.4463C14.5809 9.70088 14.9088 8.81912 14.9833 7.89875C15.0579 6.97838 14.8761 6.05534 14.4581 5.23197C14.0401 4.4086 13.4023 3.71706 12.6153 3.234C11.8284 2.75094 10.923 2.49524 9.99966 2.49524C9.07627 2.49524 8.17092 2.75094 7.38397 3.234C6.59701 3.71706 5.9592 4.4086 5.54122 5.23197C5.12325 6.05534 4.94145 6.97838 5.01597 7.89875C5.09049 8.81912 5.41842 9.70088 5.96341 10.4463C4.71799 11.0735 3.63535 11.9816 2.80091 13.0988C2.56195 13.4167 2.45905 13.8166 2.51484 14.2104C2.57062 14.6042 2.78054 14.9597 3.09841 15.1988ZM21.9997 5.50004C22.3952 5.50004 22.7819 5.61734 23.1108 5.8371C23.4397 6.05686 23.696 6.36922 23.8474 6.73467C23.9988 7.10012 24.0384 7.50226 23.9612 7.89022C23.8841 8.27818 23.6936 8.63455 23.4139 8.91425C23.1342 9.19396 22.7778 9.38444 22.3898 9.46161C22.0019 9.53878 21.5997 9.49917 21.2343 9.3478C20.8688 9.19642 20.5565 8.94008 20.3367 8.61118C20.117 8.28228 19.9997 7.8956 19.9997 7.50004C19.9997 6.9696 20.2104 6.4609 20.5854 6.08582C20.9605 5.71075 21.4692 5.50004 21.9997 5.50004ZM9.99966 5.50004C10.3952 5.50004 10.7819 5.61734 11.1108 5.8371C11.4397 6.05686 11.696 6.36922 11.8474 6.73467C11.9988 7.10012 12.0384 7.50226 11.9612 7.89022C11.8841 8.27818 11.6936 8.63455 11.4139 8.91425C11.1342 9.19396 10.7778 9.38444 10.3898 9.46161C10.0019 9.53878 9.59974 9.49917 9.23429 9.3478C8.86884 9.19642 8.55648 8.94008 8.33672 8.61118C8.11696 8.28228 7.99966 7.8956 7.99966 7.50004C7.99966 6.9696 8.21037 6.4609 8.58544 6.08582C8.96052 5.71075 9.46922 5.50004 9.99966 5.50004ZM26.0359 24.4463C26.5809 23.7009 26.9088 22.8191 26.9833 21.8988C27.0579 20.9784 26.8761 20.0553 26.4581 19.232C26.0401 18.4086 25.4023 17.7171 24.6153 17.234C23.8284 16.7509 22.923 16.4952 21.9997 16.4952C21.0763 16.4952 20.1709 16.7509 19.384 17.234C18.597 17.7171 17.9592 18.4086 17.5412 19.232C17.1233 20.0553 16.9414 20.9784 17.016 21.8988C17.0905 22.8191 17.4184 23.7009 17.9634 24.4463C17.2519 24.8036 16.5914 25.2547 15.9997 25.7875C15.4079 25.2547 14.7475 24.8036 14.0359 24.4463C14.5809 23.7009 14.9088 22.8191 14.9833 21.8988C15.0579 20.9784 14.8761 20.0553 14.4581 19.232C14.0401 18.4086 13.4023 17.7171 12.6153 17.234C11.8284 16.7509 10.923 16.4952 9.99966 16.4952C9.07627 16.4952 8.17092 16.7509 7.38397 17.234C6.59701 17.7171 5.9592 18.4086 5.54122 19.232C5.12325 20.0553 4.94145 20.9784 5.01597 21.8988C5.09049 22.8191 5.41842 23.7009 5.96341 24.4463C4.71799 25.0735 3.63535 25.9816 2.80091 27.0988C2.56188 27.4169 2.45901 27.8169 2.51492 28.2108C2.57083 28.6048 2.78094 28.9604 3.09903 29.1994C3.41713 29.4384 3.81715 29.5413 4.21109 29.4854C4.60503 29.4295 4.96063 29.2194 5.19966 28.9013C5.75852 28.1559 6.48328 27.5508 7.31653 27.1341C8.14979 26.7174 9.06864 26.5005 10.0003 26.5005C10.9319 26.5005 11.8508 26.7174 12.684 27.1341C13.5173 27.5508 14.242 28.1559 14.8009 28.9013C15.0398 29.2194 15.3952 29.4295 15.789 29.4855C16.1829 29.5416 16.5828 29.4389 16.9009 29.2C17.0134 29.1147 17.1136 29.0142 17.1984 28.9013C17.7573 28.1559 18.482 27.5508 19.3153 27.1341C20.1485 26.7174 21.0674 26.5005 21.999 26.5005C22.9307 26.5005 23.8495 26.7174 24.6828 27.1341C25.516 27.5508 26.2408 28.1559 26.7997 28.9013C26.9169 29.0616 27.0647 29.1971 27.2347 29.2998C27.4047 29.4026 27.5934 29.4705 27.7898 29.4998C27.9863 29.529 28.1866 29.519 28.3791 29.4702C28.5716 29.4214 28.7525 29.3349 28.9113 29.2156C29.0702 29.0963 29.2037 28.9467 29.3043 28.7755C29.4048 28.6042 29.4703 28.4146 29.497 28.2178C29.5237 28.021 29.5111 27.8209 29.4598 27.629C29.4086 27.4371 29.3197 27.2573 29.1984 27.1C28.3644 25.982 27.2817 25.0735 26.0359 24.4463ZM9.99966 19.5C10.3952 19.5 10.7819 19.6173 11.1108 19.8371C11.4397 20.0569 11.696 20.3692 11.8474 20.7347C11.9988 21.1001 12.0384 21.5023 11.9612 21.8902C11.8841 22.2782 11.6936 22.6345 11.4139 22.9143C11.1342 23.194 10.7778 23.3844 10.3898 23.4616C10.0019 23.5388 9.59974 23.4992 9.23429 23.3478C8.86884 23.1964 8.55648 22.9401 8.33672 22.6112C8.11696 22.2823 7.99966 21.8956 7.99966 21.5C7.99966 20.9696 8.21037 20.4609 8.58544 20.0858C8.96052 19.7108 9.46922 19.5 9.99966 19.5ZM21.9997 19.5C22.3952 19.5 22.7819 19.6173 23.1108 19.8371C23.4397 20.0569 23.696 20.3692 23.8474 20.7347C23.9988 21.1001 24.0384 21.5023 23.9612 21.8902C23.8841 22.2782 23.6936 22.6345 23.4139 22.9143C23.1342 23.194 22.7778 23.3844 22.3898 23.4616C22.0019 23.5388 21.5997 23.4992 21.2343 23.3478C20.8688 23.1964 20.5565 22.9401 20.3367 22.6112C20.117 22.2823 19.9997 21.8956 19.9997 21.5C19.9997 20.9696 20.2104 20.4609 20.5854 20.0858C20.9605 19.7108 21.4692 19.5 21.9997 19.5Z" fill="#F1DFFD"/>
</svg>
