<svg width="28" height="22" viewBox="0 0 28 22" fill="none" xmlns="http://www.w3.org/2000/svg">
<path fill-rule="evenodd" clip-rule="evenodd" d="M9.66601 7.66659C9.97243 7.66659 10.2758 7.60623 10.5589 7.48897C10.842 7.37171 11.0993 7.19984 11.3159 6.98317C11.5326 6.7665 11.7045 6.50927 11.8217 6.22618C11.939 5.94309 11.9993 5.63967 11.9993 5.33325C11.9993 5.02683 11.939 4.72342 11.8217 4.44032C11.7045 4.15723 11.5326 3.90001 11.3159 3.68334C11.0993 3.46667 10.842 3.29479 10.5589 3.17753C10.2758 3.06027 9.97243 2.99992 9.66601 2.99992C9.04718 2.99992 8.45368 3.24575 8.0161 3.68334C7.57851 4.12092 7.33268 4.71441 7.33268 5.33325C7.33268 5.95209 7.57851 6.54558 8.0161 6.98317C8.45368 7.42075 9.04718 7.66659 9.66601 7.66659ZM9.66601 10.3333C10.3226 10.3333 10.9728 10.2039 11.5794 9.95265C12.1861 9.70138 12.7373 9.33308 13.2015 8.86879C13.6658 8.40449 14.0341 7.8533 14.2854 7.24667C14.5367 6.64004 14.666 5.98986 14.666 5.33325C14.666 4.67664 14.5367 4.02646 14.2854 3.41983C14.0341 2.81321 13.6658 2.26201 13.2015 1.79772C12.7373 1.33343 12.1861 0.965128 11.5794 0.713854C10.9728 0.462581 10.3226 0.333252 9.66601 0.333252C8.33993 0.333252 7.06816 0.860036 6.13048 1.79772C5.1928 2.7354 4.66602 4.00717 4.66602 5.33325C4.66602 6.65933 5.1928 7.9311 6.13048 8.86879C7.06816 9.80647 8.33993 10.3333 9.66601 10.3333ZM2.35402 14.3693C3.55268 12.7039 5.37935 11.6666 7.71402 11.6666H12.2847C14.6207 11.6666 16.446 12.7039 17.6447 14.3693C18.8087 15.9866 19.3327 18.1186 19.3327 20.3333C19.3327 20.6869 19.1922 21.026 18.9422 21.2761C18.6921 21.5261 18.353 21.6666 17.9993 21.6666C17.6457 21.6666 17.3066 21.5261 17.0565 21.2761C16.8065 21.026 16.666 20.6869 16.666 20.3333C16.666 18.4973 16.226 16.9639 15.4793 15.9266C14.7687 14.9373 13.7367 14.3333 12.2847 14.3333H7.71402C6.26068 14.3333 5.23002 14.9373 4.51802 15.9266C3.77268 16.9626 3.33268 18.4973 3.33268 20.3333C3.33268 20.6869 3.19221 21.026 2.94216 21.2761C2.69211 21.5261 2.35297 21.6666 1.99935 21.6666C1.64573 21.6666 1.30659 21.5261 1.05654 21.2761C0.806491 21.026 0.666016 20.6869 0.666016 20.3333C0.666016 18.1186 1.19002 15.9866 2.35402 14.3693Z" fill="#F1DFFD"/>
<path fill-rule="evenodd" clip-rule="evenodd" d="M0.666016 20.3331C0.666016 19.9795 0.806491 19.6404 1.05654 19.3903C1.30659 19.1403 1.64573 18.9998 1.99935 18.9998H17.9607C18.3143 18.9998 18.6534 19.1403 18.9035 19.3903C19.1535 19.6404 19.294 19.9795 19.294 20.3331C19.294 20.6868 19.1535 21.0259 18.9035 21.2759C18.6534 21.526 18.3143 21.6665 17.9607 21.6665H1.99935C1.64573 21.6665 1.30659 21.526 1.05654 21.2759C0.806491 21.0259 0.666016 20.6868 0.666016 20.3331ZM17.8553 2.82247L17.818 2.8198C17.6177 2.80818 17.4189 2.77692 17.2247 2.72647C16.7647 2.6038 16.3513 2.35847 16.1633 1.93313L16.146 1.8958C15.8687 1.26913 16.154 0.518467 16.83 0.402467C17.5135 0.287538 18.2135 0.315977 18.8854 0.485978C19.5574 0.65598 20.1866 0.96383 20.7333 1.38999C21.2799 1.81614 21.732 2.35129 22.0607 2.96147C22.3895 3.57164 22.5879 4.24351 22.6432 4.93442C22.6984 5.62533 22.6095 6.32019 22.3819 6.97488C22.1543 7.62958 21.7931 8.22981 21.3212 8.73747C20.8493 9.24513 20.277 9.64913 19.6407 9.92382C19.0043 10.1985 18.3178 10.3379 17.6247 10.3331C16.9393 10.3278 16.538 9.6318 16.7127 8.96913L16.7233 8.92913C16.8407 8.47847 17.2113 8.17047 17.6433 7.97713C17.8386 7.89081 18.0424 7.82512 18.2513 7.78113C18.8369 7.64337 19.3537 7.30038 19.7081 6.81433C20.0625 6.32828 20.231 5.73134 20.1831 5.13171C20.1353 4.53209 19.8741 3.96946 19.4471 3.54582C19.02 3.12218 18.4553 2.86555 17.8553 2.82247ZM18.666 12.9998C18.666 12.6462 18.8065 12.307 19.0565 12.057C19.3066 11.8069 19.6457 11.6665 19.9993 11.6665H20.2847C22.6207 11.6665 24.446 12.7038 25.6447 14.3691C26.8087 15.9865 27.3327 18.1185 27.3327 20.3331C27.3327 20.6868 27.1922 21.0259 26.9422 21.2759C26.6921 21.526 26.353 21.6665 25.9993 21.6665C25.6457 21.6665 25.3066 21.526 25.0565 21.2759C24.8065 21.0259 24.666 20.6868 24.666 20.3331C24.666 18.4971 24.226 16.9638 23.4793 15.9265C22.7687 14.9371 21.7367 14.3331 20.2847 14.3331H19.9993C19.6457 14.3331 19.3066 14.1927 19.0565 13.9426C18.8065 13.6926 18.666 13.3534 18.666 12.9998Z" fill="#F1DFFD"/>
<path fill-rule="evenodd" clip-rule="evenodd" d="M20.666 20.3333C20.666 19.9797 20.8065 19.6406 21.0565 19.3905C21.3066 19.1405 21.6457 19 21.9993 19H25.9607C26.3143 19 26.6534 19.1405 26.9035 19.3905C27.1535 19.6406 27.294 19.9797 27.294 20.3333C27.294 20.687 27.1535 21.0261 26.9035 21.2761C26.6534 21.5262 26.3143 21.6667 25.9607 21.6667H21.9993C21.6457 21.6667 21.3066 21.5262 21.0565 21.2761C20.8065 21.0261 20.666 20.687 20.666 20.3333Z" fill="#F1DFFD"/>
</svg>
