<svg width="26" height="31" viewBox="0 0 26 31" fill="none" xmlns="http://www.w3.org/2000/svg">
<path d="M0.839844 23.0667C2.67411 14.947 6.59422 7.44593 12.2132 1.30407C12.3131 1.19537 12.4345 1.1086 12.5697 1.04924C12.7048 0.989878 12.8509 0.959229 12.9985 0.959229C13.1462 0.959229 13.2922 0.989878 13.4274 1.04924C13.5625 1.1086 13.6839 1.19537 13.7838 1.30407C14.0061 1.54407 14.1892 1.74674 14.3332 1.91207C19.6621 7.94081 23.3852 15.2156 25.1585 23.0641C22.2659 23.6736 19.3313 24.0636 16.3798 24.2307L13.5958 29.8001C13.5404 29.9107 13.4553 30.0036 13.3501 30.0686C13.2448 30.1336 13.1235 30.168 12.9998 30.168C12.8761 30.168 12.7549 30.1336 12.6496 30.0686C12.5444 30.0036 12.4593 29.9107 12.4038 29.8001L9.61851 24.2307C6.66707 24.0636 3.73249 23.6736 0.839844 23.0641M9.76918 21.5667L11.3132 21.6547L12.9998 25.0307L14.6865 21.6574L16.2292 21.5694C18.1169 21.4625 19.998 21.26 21.8652 20.9627C20.0962 14.8983 17.0757 9.27198 12.9985 4.44674C8.92224 9.27222 5.90265 14.8985 4.13451 20.9627C6.00129 21.2599 7.88192 21.4624 9.76918 21.5694M12.9998 18.9934C11.939 18.9934 10.9216 18.572 10.1714 17.8218C9.42127 17.0717 8.99984 16.0543 8.99984 14.9934C8.99984 13.9325 9.42127 12.9151 10.1714 12.165C10.9216 11.4148 11.939 10.9934 12.9998 10.9934C14.0607 10.9934 15.0781 11.4148 15.8283 12.165C16.5784 12.9151 16.9998 13.9325 16.9998 14.9934C16.9998 16.0543 16.5784 17.0717 15.8283 17.8218C15.0781 18.572 14.0607 18.9934 12.9998 18.9934ZM12.9998 16.3267C13.3535 16.3267 13.6926 16.1863 13.9427 15.9362C14.1927 15.6862 14.3332 15.347 14.3332 14.9934C14.3332 14.6398 14.1927 14.3006 13.9427 14.0506C13.6926 13.8005 13.3535 13.6601 12.9998 13.6601C12.6462 13.6601 12.3071 13.8005 12.057 14.0506C11.807 14.3006 11.6665 14.6398 11.6665 14.9934C11.6665 15.347 11.807 15.6862 12.057 15.9362C12.3071 16.1863 12.6462 16.3267 12.9998 16.3267Z" fill="#F1DFFD"/>
</svg>
