<svg width="28" height="30" viewBox="0 0 28 30" fill="none" xmlns="http://www.w3.org/2000/svg">
<path d="M10.1428 5.26396C10.9401 2.93063 14.1641 2.85996 15.1095 5.05196L15.1895 5.26529L16.2655 8.41196C16.5121 9.1336 16.9105 9.79397 17.434 10.3485C17.9575 10.9031 18.5939 11.3389 19.3001 11.6266L19.5895 11.7346L22.7361 12.8093C25.0695 13.6066 25.1401 16.8306 22.9495 17.776L22.7361 17.856L19.5895 18.932C18.8676 19.1784 18.207 19.5768 17.6522 20.1003C17.0974 20.6238 16.6613 21.2602 16.3735 21.9666L16.2655 22.2546L15.1908 25.4026C14.3935 27.736 11.1695 27.8066 10.2255 25.616L10.1428 25.4026L9.06814 22.256C8.82171 21.5341 8.4233 20.8734 7.89979 20.3186C7.37629 19.7639 6.73986 19.3278 6.03347 19.04L5.74547 18.932L2.59881 17.8573C0.264139 17.06 0.193473 13.836 2.38547 12.892L2.59881 12.8093L5.74547 11.7346C6.46712 11.488 7.12749 11.0896 7.68204 10.5661C8.23659 10.0426 8.67242 9.40621 8.96014 8.69996L9.06814 8.41196L10.1428 5.26396ZM12.6668 6.12529L11.5921 9.27196C11.2167 10.3724 10.6058 11.3777 9.80219 12.218C8.99854 13.0582 8.0214 13.7132 6.93881 14.1373L6.60547 14.2586L3.45881 15.3333L6.60547 16.408C7.70588 16.7834 8.71121 17.3943 9.55147 18.1979C10.3917 19.0016 11.0467 19.9787 11.4708 21.0613L11.5921 21.3946L12.6668 24.5413L13.7415 21.3946C14.117 20.2942 14.7278 19.2889 15.5314 18.4486C16.3351 17.6084 17.3122 16.9534 18.3948 16.5293L18.7281 16.4093L21.8748 15.3333L18.7281 14.2586C17.6277 13.8831 16.6224 13.2723 15.7821 12.4687C14.9419 11.665 14.2869 10.6879 13.8628 9.60529L13.7428 9.27196L12.6668 6.12529ZM23.3335 0.666626C23.5829 0.666626 23.8274 0.736597 24.039 0.868588C24.2507 1.00058 24.4211 1.1893 24.5308 1.41329L24.5948 1.56929L25.0615 2.93729L26.4308 3.40396C26.6808 3.48889 26.8999 3.64611 27.0604 3.85571C27.221 4.06531 27.3157 4.31785 27.3325 4.58132C27.3494 4.84479 27.2876 5.10733 27.1551 5.33568C27.0226 5.56402 26.8253 5.74788 26.5881 5.86396L26.4308 5.92796L25.0628 6.39463L24.5961 7.76396C24.5111 8.01386 24.3537 8.23289 24.144 8.39328C23.9344 8.55368 23.6818 8.64822 23.4183 8.66492C23.1549 8.68163 22.8924 8.61975 22.6641 8.48713C22.4359 8.35451 22.2521 8.15712 22.1361 7.91996L22.0721 7.76396L21.6055 6.39596L20.2361 5.92929C19.9862 5.84437 19.767 5.68714 19.6065 5.47754C19.446 5.26794 19.3513 5.0154 19.3344 4.75193C19.3176 4.48846 19.3793 4.22592 19.5118 3.99758C19.6444 3.76923 19.8417 3.58537 20.0788 3.46929L20.2361 3.40529L21.6041 2.93863L22.0708 1.56929C22.1607 1.30586 22.3308 1.07717 22.5573 0.915291C22.7837 0.753411 23.0551 0.666459 23.3335 0.666626Z" fill="#F1DFFD"/>
</svg>
