<svg width="160" height="28" viewBox="0 0 160 28" fill="none" xmlns="http://www.w3.org/2000/svg">
<path d="M103.858 21.3808C101.896 21.4264 99.9667 20.8715 98.3317 19.7911C96.6968 18.7108 95.4347 17.157 94.7162 15.34C94.239 14.1339 94.0138 12.8438 94.0544 11.5483C94.0207 10.2613 94.2503 8.98097 94.7293 7.78496C95.2082 6.58894 95.9265 5.50224 96.8406 4.59083C97.7518 3.66454 98.8453 2.93525 100.053 2.44859C101.26 1.96193 102.556 1.72836 103.858 1.7625C105.162 1.73047 106.457 1.98944 107.648 2.5204C108.838 3.05136 109.894 3.84083 110.738 4.83083L109.053 6.5075C108.434 5.72986 107.644 5.10487 106.743 4.68132C105.842 4.25777 104.854 4.04713 103.858 4.06583C102.887 4.04225 101.921 4.21637 101.02 4.57749C100.119 4.93861 99.3017 5.47912 98.6182 6.16583C97.9194 6.87392 97.3737 7.71686 97.0149 8.6427C96.656 9.56854 96.4915 10.5577 96.5315 11.5492C96.4893 12.5443 96.6526 13.5374 97.0116 14.4672C97.3705 15.3971 97.9173 16.2438 98.6182 16.955C99.3002 17.6436 100.117 18.1852 101.019 18.5464C101.92 18.9075 102.887 19.0803 103.858 19.0542C104.96 19.0491 106.047 18.7985 107.039 18.3207C108.032 17.843 108.903 17.1502 109.591 16.2933L111.357 18.005C110.463 19.0679 109.337 19.9143 108.066 20.48C106.746 21.0824 105.31 21.3899 103.858 21.3808ZM115.748 2.18416V20.97H113.317V2.18416H115.748ZM117.835 14.5375C117.808 13.637 117.961 12.7401 118.283 11.8984C118.606 11.0567 119.093 10.2866 119.716 9.6325C120.331 8.99702 121.074 8.49632 121.895 8.16242C122.716 7.82852 123.599 7.66875 124.485 7.69333C125.369 7.66821 126.248 7.82782 127.065 8.16185C127.883 8.49588 128.621 8.9969 129.232 9.6325C129.861 10.2827 130.352 11.0518 130.677 11.8943C131.002 12.7368 131.154 13.6356 131.124 14.5375C131.157 15.4396 131.007 16.3392 130.682 17.1819C130.357 18.0247 129.863 18.7934 129.232 19.4417C128.623 20.0798 127.885 20.5825 127.067 20.9167C126.249 21.2509 125.369 21.4091 124.485 21.3808C123.598 21.4077 122.715 21.249 121.894 20.915C121.072 20.581 120.33 20.079 119.716 19.4417C119.093 18.7876 118.606 18.0177 118.284 17.1761C117.961 16.3345 117.808 15.4379 117.835 14.5375ZM120.266 14.5375C120.21 15.7711 120.647 16.9766 121.481 17.8908C121.867 18.2986 122.332 18.6235 122.849 18.8454C123.366 19.0672 123.923 19.1814 124.485 19.1808C125.048 19.1807 125.605 19.0662 126.121 18.8444C126.638 18.6226 127.103 18.2981 127.489 17.8908C128.324 16.9764 128.76 15.771 128.705 14.5375C128.758 13.311 128.321 12.1134 127.489 11.2067C127.107 10.7932 126.643 10.4631 126.126 10.2374C125.609 10.0116 125.05 9.89502 124.485 9.89502C123.921 9.89502 123.362 10.0116 122.845 10.2374C122.328 10.4631 121.864 10.7932 121.481 11.2067C120.649 12.1134 120.212 13.311 120.266 14.5375ZM144.539 20.9708H142.246V19.1792H142.131C141.722 19.849 141.134 20.3938 140.434 20.7542C139.707 21.164 138.885 21.3799 138.049 21.3808C137.379 21.4241 136.707 21.3266 136.077 21.0948C135.447 20.8629 134.873 20.5018 134.392 20.035C133.483 18.9659 133.027 17.5879 133.119 16.1908V8.12666H135.538V16.0433C135.488 16.4719 135.537 16.9061 135.68 17.3132C135.824 17.7203 136.058 18.0896 136.366 18.3933C136.675 18.6966 137.049 18.9261 137.459 19.0643C137.87 19.2024 138.307 19.2457 138.737 19.1908C139.201 19.1987 139.661 19.0998 140.081 18.902C140.501 18.7041 140.869 18.4125 141.156 18.05C141.81 17.2665 142.157 16.2739 142.131 15.2558V8.12666H144.562L144.539 20.9708ZM152.748 21.3808C151.923 21.3805 151.108 21.2031 150.358 20.8607C149.608 20.5182 148.941 20.0189 148.403 19.3967C147.199 18.0645 146.544 16.3292 146.569 14.5375C146.529 12.7549 147.168 11.0231 148.357 9.68916C148.891 9.06091 149.557 8.55664 150.308 8.21183C151.059 7.86702 151.876 7.69004 152.703 7.69333C153.608 7.67829 154.502 7.88613 155.306 8.29833C156.042 8.65966 156.668 9.21108 157.117 9.895H157.22L157.163 8.12666V2.185H159.582V20.97H157.29V19.1792H157.186C156.737 19.8634 156.111 20.4151 155.375 20.7767C154.563 21.1923 153.661 21.4 152.748 21.3808ZM153.15 19.1792C153.703 19.1973 154.254 19.0908 154.76 18.8677C155.266 18.6447 155.716 18.3107 156.074 17.8908C156.876 16.9615 157.286 15.7603 157.22 14.5375C157.276 13.3229 156.866 12.1325 156.074 11.2067C155.716 10.7842 155.268 10.447 154.762 10.22C154.256 9.99298 153.705 9.88191 153.15 9.895C152.595 9.88634 152.046 9.99939 151.541 10.2261C151.035 10.4528 150.587 10.7876 150.226 11.2067C149.434 12.1324 149.024 13.3228 149.079 14.5375C149.016 15.753 149.427 16.9459 150.226 17.8675C150.586 18.2868 151.035 18.6218 151.54 18.8485C152.046 19.0753 152.595 19.1882 153.15 19.1792ZM11.8328 21.38C8.97967 21.3893 6.23767 20.28 4.20088 18.2924C2.1641 16.3047 0.996547 13.5988 0.951172 10.7608C0.996548 7.92271 2.16421 5.21666 4.20118 3.22899C6.23815 1.24132 8.98036 0.1321 11.8337 0.141665C13.1933 0.119163 14.5437 0.366878 15.8058 0.870291C17.0679 1.3737 18.2163 2.12269 19.1836 3.07333L17.1078 5.115C15.693 3.75931 13.7979 3.01315 11.8337 3.03833C10.8166 3.03528 9.80914 3.23345 8.8698 3.62132C7.93045 4.00919 7.07802 4.57902 6.3621 5.29764C5.64618 6.01627 5.08107 6.86935 4.69963 7.80725C4.3182 8.74516 4.12806 9.74915 4.14028 10.7608C4.12817 11.7724 4.31839 12.7763 4.69988 13.7142C5.08136 14.652 5.6465 15.5049 6.36241 16.2235C7.07831 16.942 7.9307 17.5118 8.86999 17.8996C9.80928 18.2874 10.8167 18.4856 11.8337 18.4825C12.8355 18.5233 13.8348 18.3546 14.767 17.9871C15.6992 17.6196 16.5434 17.0616 17.2452 16.3492C18.1808 15.3455 18.7433 14.0538 18.8393 12.6883H11.8337V9.8025H21.6942C21.8023 10.4008 21.8517 11.0083 21.8433 11.6158C21.921 14.1188 21.007 16.5519 19.2984 18.3908C18.3368 19.3848 17.1745 20.165 15.8881 20.6802C14.6017 21.1954 13.2202 21.4339 11.8345 21.38H11.8328ZM37.0927 14.5367C37.1294 15.4484 36.9806 16.3582 36.6551 17.2113C36.3296 18.0645 35.8343 18.8434 35.1988 19.5014C34.5633 20.1594 33.8007 20.683 32.9567 21.0406C32.1128 21.3982 31.205 21.5825 30.2877 21.5825C29.3704 21.5825 28.4626 21.3982 27.6187 21.0406C26.7748 20.683 26.0122 20.1594 25.3767 19.5014C24.7411 18.8434 24.2458 18.0645 23.9203 17.2113C23.5949 16.3582 23.446 15.4484 23.4827 14.5367C23.4432 13.6232 23.59 12.7112 23.9142 11.8557C24.2384 11.0001 24.7333 10.2187 25.3691 9.55847C26.0049 8.89821 26.7684 8.3728 27.6137 8.01385C28.459 7.65491 29.3686 7.46987 30.2877 7.46987C31.2068 7.46987 32.1164 7.65491 32.9617 8.01385C33.807 8.3728 34.5706 8.89821 35.2064 9.55847C35.8422 10.2187 36.3371 11.0001 36.6612 11.8557C36.9854 12.7112 37.1322 13.6232 37.0927 14.5367ZM34.1114 14.5367C34.1613 14.0072 34.0995 13.4731 33.93 12.9688C33.7605 12.4644 33.487 12.0008 33.1271 11.6076C32.7671 11.2144 32.3286 10.9002 31.8396 10.6853C31.3506 10.4704 30.8219 10.3593 30.2873 10.3593C29.7527 10.3593 29.224 10.4704 28.735 10.6853C28.246 10.9002 27.8075 11.2144 27.4475 11.6076C27.0876 12.0008 26.8141 12.4644 26.6446 12.9688C26.4751 13.4731 26.4133 14.0072 26.4632 14.5367C26.4147 15.0654 26.4775 15.5984 26.6476 16.1017C26.8177 16.6049 27.0914 17.0674 27.4512 17.4595C27.811 17.8516 28.2491 18.1648 28.7374 18.3791C29.2257 18.5934 29.7536 18.7041 30.2873 18.7041C30.821 18.7041 31.3489 18.5934 31.8372 18.3791C32.3255 18.1648 32.7636 17.8516 33.1234 17.4595C33.4832 17.0674 33.7569 16.6049 33.927 16.1017C34.0971 15.5984 34.1599 15.0654 34.1114 14.5367ZM52.3531 14.5367C52.4006 15.6795 52.1565 16.8156 51.6435 17.8392C51.1304 18.8629 50.3652 19.7406 49.4192 20.3906C48.4731 21.0406 47.3771 21.4418 46.2331 21.5566C45.0891 21.6715 43.9346 21.4963 42.877 21.0475C41.605 20.5081 40.5282 19.5962 39.7897 18.4332C39.0512 17.2702 38.6862 15.9111 38.743 14.5367C38.7035 13.6232 38.8503 12.7112 39.1745 11.8557C39.4987 11.0001 39.9936 10.2187 40.6294 9.55847C41.2652 8.89821 42.0287 8.3728 42.874 8.01385C43.7193 7.65491 44.6289 7.46987 45.548 7.46987C46.4671 7.46987 47.3767 7.65491 48.222 8.01385C49.0673 8.3728 49.8309 8.89821 50.4667 9.55847C51.1025 10.2187 51.5974 11.0001 51.9216 11.8557C52.2457 12.7112 52.3925 13.6232 52.3531 14.5367ZM49.3717 14.5367C49.4138 14.0109 49.3461 13.4821 49.1727 12.9836C48.9994 12.4851 48.7242 12.0278 48.3645 11.6403C48.0048 11.2528 47.5683 10.9435 47.0826 10.732C46.5969 10.5205 46.0724 10.4113 45.5422 10.4113C45.0119 10.4113 44.4875 10.5205 44.0017 10.732C43.516 10.9435 43.0796 11.2528 42.7198 11.6403C42.3601 12.0278 42.0849 12.4851 41.9116 12.9836C41.7382 13.4821 41.6705 14.0109 41.7126 14.5367C41.6721 15.0616 41.741 15.5891 41.915 16.0863C42.0891 16.5835 42.3645 17.0395 42.7241 17.4257C43.0836 17.812 43.5196 18.1202 44.0045 18.3309C44.4895 18.5417 45.013 18.6505 45.5422 18.6505C46.0714 18.6505 46.5949 18.5417 47.0798 18.3309C47.5648 18.1202 48.0007 17.812 48.3603 17.4257C48.7198 17.0395 48.9953 16.5835 49.1693 16.0863C49.3434 15.5891 49.4123 15.0616 49.3717 14.5367ZM67.2255 8.12666V20.3992C67.2255 25.4408 64.2098 27.5167 60.6555 27.5167C59.3473 27.524 58.0664 27.144 56.976 26.4251C55.8855 25.7061 55.0347 24.6806 54.5319 23.4792L57.1807 22.3383C57.4474 23.038 57.9165 23.6433 58.5289 24.0779C59.1412 24.5125 59.8693 24.7568 60.6211 24.78C62.9139 24.78 64.3128 23.3767 64.3128 20.7642V19.7833H64.2442C63.7855 20.2981 63.2198 20.7076 62.5862 20.9833C61.9526 21.259 61.2664 21.3944 60.575 21.38C59.6716 21.38 58.777 21.203 57.9423 20.859C57.1077 20.5151 56.3493 20.011 55.7104 19.3755C55.0716 18.74 54.5649 17.9856 54.2191 17.1552C53.8734 16.3249 53.6955 15.435 53.6955 14.5362C53.6955 13.6375 53.8734 12.7476 54.2191 11.9173C54.5649 11.0869 55.0716 10.3325 55.7104 9.69699C56.3493 9.06149 57.1077 8.55738 57.9423 8.21345C58.777 7.86952 59.6716 7.6925 60.575 7.6925C61.2641 7.67999 61.9479 7.81404 62.5807 8.08566C63.2134 8.35728 63.7806 8.76021 64.2442 9.2675H64.3472V8.12583L67.2255 8.12666ZM64.5533 14.5825C64.5954 14.0654 64.5325 13.5451 64.3684 13.0526C64.2042 12.5602 63.942 12.1056 63.5976 11.7161C63.2531 11.3265 62.8333 11.0099 62.3633 10.7851C61.8932 10.5603 61.3825 10.4319 60.8615 10.4075C60.3324 10.4266 59.8124 10.5502 59.3317 10.7712C58.8511 10.9922 58.4195 11.3061 58.062 11.6947C57.7045 12.0832 57.4284 12.5387 57.2496 13.0345C57.0708 13.5303 56.993 14.0565 57.0207 14.5825C56.9963 15.1048 57.0768 15.6268 57.2575 16.1178C57.4382 16.6088 57.7154 17.0591 58.073 17.4424C58.4306 17.8256 58.8613 18.1341 59.3401 18.3499C59.8189 18.5657 60.3361 18.6845 60.8615 18.6992C61.3803 18.6807 61.89 18.5578 62.3597 18.338C62.8294 18.1181 63.2495 17.8059 63.5945 17.42C63.9395 17.0342 64.2024 16.5828 64.3672 16.0931C64.5319 15.6034 64.5952 15.0855 64.5533 14.5708V14.5825ZM72.5332 0.871665V20.9692H69.5057V0.871665H72.5332ZM84.4586 16.7958L86.8209 18.3925C86.19 19.3284 85.3366 20.0949 84.3365 20.6241C83.3364 21.1532 82.2205 21.4286 81.0877 21.4258C80.1866 21.4386 79.2923 21.2694 78.4588 20.9284C77.6253 20.5874 76.8701 20.0817 76.2387 19.442C75.6074 18.8022 75.1131 18.0417 74.7857 17.2064C74.4584 16.3712 74.3048 15.4785 74.3342 14.5825C74.201 13.0425 74.6418 11.5075 75.5727 10.2699C76.5037 9.03236 77.8597 8.17867 79.3825 7.87145C80.9053 7.56423 82.4885 7.82496 83.8305 8.60397C85.1726 9.38298 86.1797 10.6258 86.6601 12.0958L86.97 12.8833L77.7972 16.6583C78.083 17.2973 78.5546 17.8365 79.1512 18.2065C79.7478 18.5765 80.4421 18.7603 81.1447 18.7342C81.8174 18.7191 82.475 18.533 83.0551 18.1938C83.6351 17.8545 84.1183 17.3733 84.4586 16.7958ZM77.2234 14.3317L83.3922 11.8C83.1453 11.3457 82.7713 10.9725 82.3154 10.7254C81.8595 10.4784 81.3414 10.3683 80.8238 10.4083C80.3284 10.4305 79.8422 10.5496 79.393 10.7588C78.9438 10.968 78.5405 11.2632 78.2061 11.6276C77.8718 11.992 77.6128 12.4183 77.4442 12.8823C77.2756 13.3463 77.2006 13.8388 77.2234 14.3317Z" fill="#E5E5E5" fill-opacity="0.8"/>
</svg>
