<svg width="26" height="31" viewBox="0 0 26 31" fill="none" xmlns="http://www.w3.org/2000/svg">
<path d="M0.839844 23.0666C2.67411 14.9468 6.59422 7.44581 12.2132 1.30395C12.3131 1.19525 12.4345 1.10847 12.5697 1.04911C12.7048 0.989756 12.8509 0.959106 12.9985 0.959106C13.1462 0.959106 13.2922 0.989756 13.4274 1.04911C13.5625 1.10847 13.6839 1.19525 13.7838 1.30395C14.0061 1.54395 14.1892 1.74662 14.3332 1.91195C19.6621 7.94069 23.3852 15.2155 25.1585 23.0639C22.2659 23.6735 19.3313 24.0635 16.3798 24.2306L13.5958 29.7999C13.5404 29.9105 13.4553 30.0035 13.3501 30.0685C13.2448 30.1335 13.1235 30.1679 12.9998 30.1679C12.8761 30.1679 12.7549 30.1335 12.6496 30.0685C12.5444 30.0035 12.4593 29.9105 12.4038 29.7999L9.61851 24.2306C6.66707 24.0635 3.73249 23.6735 0.839844 23.0639M9.76918 21.5666L11.3132 21.6546L12.9998 25.0306L14.6865 21.6573L16.2292 21.5693C18.1169 21.4623 19.998 21.2599 21.8652 20.9626C20.0962 14.8982 17.0757 9.27186 12.9985 4.44662C8.92224 9.27209 5.90265 14.8984 4.13451 20.9626C6.00129 21.2598 7.88192 21.4623 9.76918 21.5693M12.9998 18.9933C11.939 18.9933 10.9216 18.5719 10.1714 17.8217C9.42127 17.0716 8.99984 16.0541 8.99984 14.9933C8.99984 13.9324 9.42127 12.915 10.1714 12.1649C10.9216 11.4147 11.939 10.9933 12.9998 10.9933C14.0607 10.9933 15.0781 11.4147 15.8283 12.1649C16.5784 12.915 16.9998 13.9324 16.9998 14.9933C16.9998 16.0541 16.5784 17.0716 15.8283 17.8217C15.0781 18.5719 14.0607 18.9933 12.9998 18.9933ZM12.9998 16.3266C13.3535 16.3266 13.6926 16.1861 13.9427 15.9361C14.1927 15.686 14.3332 15.3469 14.3332 14.9933C14.3332 14.6397 14.1927 14.3005 13.9427 14.0505C13.6926 13.8004 13.3535 13.6599 12.9998 13.6599C12.6462 13.6599 12.3071 13.8004 12.057 14.0505C11.807 14.3005 11.6665 14.6397 11.6665 14.9933C11.6665 15.3469 11.807 15.686 12.057 15.9361C12.3071 16.1861 12.6462 16.3266 12.9998 16.3266Z" fill="#F1DFFD"/>
</svg>
