<svg width="28" height="28" viewBox="0 0 28 28" fill="none" xmlns="http://www.w3.org/2000/svg">
<path d="M1.09841 13.1987C1.25588 13.3172 1.43517 13.4035 1.62602 13.4527C1.81687 13.5019 2.01554 13.513 2.21068 13.4854C2.40583 13.4577 2.59361 13.3919 2.7633 13.2917C2.933 13.1914 3.08127 13.0587 3.19966 12.9012C3.75852 12.1558 4.48328 11.5507 5.31653 11.134C6.14979 10.7173 7.06864 10.5003 8.00028 10.5003C8.93193 10.5003 9.85078 10.7173 10.684 11.134C11.5173 11.5507 12.242 12.1558 12.8009 12.9012C13.0398 13.2192 13.3952 13.4294 13.789 13.4854C14.1829 13.5414 14.5828 13.4387 14.9009 13.1999C15.0134 13.1146 15.1136 13.014 15.1984 12.9012C15.7573 12.1558 16.482 11.5507 17.3153 11.134C18.1485 10.7173 19.0674 10.5003 19.999 10.5003C20.9307 10.5003 21.8495 10.7173 22.6828 11.134C23.516 11.5507 24.2408 12.1558 24.7997 12.9012C24.9169 13.0615 25.0647 13.197 25.2347 13.2997C25.4047 13.4025 25.5934 13.4704 25.7898 13.4997C25.9863 13.5289 26.1866 13.5188 26.3791 13.4701C26.5716 13.4213 26.7525 13.3347 26.9113 13.2155C27.0702 13.0962 27.2037 12.9466 27.3043 12.7753C27.4048 12.604 27.4703 12.4145 27.497 12.2177C27.5237 12.0209 27.5111 11.8207 27.4598 11.6289C27.4086 11.437 27.3197 11.2572 27.1984 11.0999C26.364 9.98269 25.2813 9.07465 24.0359 8.44742C24.5809 7.70201 24.9088 6.82025 24.9833 5.89988C25.0579 4.9795 24.8761 4.05647 24.4581 3.2331C24.0401 2.40973 23.4023 1.71818 22.6153 1.23513C21.8284 0.752069 20.923 0.496367 19.9997 0.496367C19.0763 0.496367 18.1709 0.752069 17.384 1.23513C16.597 1.71818 15.9592 2.40973 15.5412 3.2331C15.1233 4.05647 14.9414 4.9795 15.016 5.89988C15.0905 6.82025 15.4184 7.70201 15.9634 8.44742C15.2516 8.80438 14.5911 9.25551 13.9997 9.78866C13.4083 9.25507 12.7478 8.80352 12.0359 8.44617C12.5809 7.70076 12.9088 6.819 12.9833 5.89863C13.0579 4.97825 12.8761 4.05522 12.4581 3.23185C12.0401 2.40848 11.4023 1.71693 10.6153 1.23388C9.82839 0.750819 8.92304 0.495117 7.99966 0.495117C7.07627 0.495117 6.17092 0.750819 5.38397 1.23388C4.59701 1.71693 3.9592 2.40848 3.54122 3.23185C3.12325 4.05522 2.94145 4.97825 3.01597 5.89863C3.09049 6.819 3.41842 7.70076 3.96341 8.44617C2.71799 9.0734 1.63535 9.98144 0.800908 11.0987C0.561946 11.4166 0.459046 11.8165 0.514835 12.2103C0.570625 12.6041 0.780535 12.9596 1.09841 13.1987ZM19.9997 3.49992C20.3952 3.49992 20.7819 3.61721 21.1108 3.83698C21.4397 4.05674 21.696 4.3691 21.8474 4.73455C21.9988 5.1 22.0384 5.50213 21.9612 5.8901C21.8841 6.27806 21.6936 6.63442 21.4139 6.91413C21.1342 7.19383 20.7778 7.38432 20.3898 7.46149C20.0019 7.53866 19.5997 7.49905 19.2343 7.34767C18.8688 7.1963 18.5565 6.93995 18.3367 6.61106C18.117 6.28216 17.9997 5.89548 17.9997 5.49992C17.9997 4.96948 18.2104 4.46077 18.5854 4.0857C18.9605 3.71063 19.4692 3.49992 19.9997 3.49992ZM7.99966 3.49992C8.39522 3.49992 8.7819 3.61721 9.1108 3.83698C9.4397 4.05674 9.69604 4.3691 9.84742 4.73455C9.99879 5.1 10.0384 5.50213 9.96123 5.8901C9.88406 6.27806 9.69358 6.63442 9.41387 6.91413C9.13417 7.19383 8.7778 7.38432 8.38984 7.46149C8.00188 7.53866 7.59974 7.49905 7.23429 7.34767C6.86884 7.1963 6.55648 6.93995 6.33672 6.61106C6.11696 6.28216 5.99966 5.89548 5.99966 5.49992C5.99966 4.96948 6.21037 4.46077 6.58544 4.0857C6.96052 3.71063 7.46922 3.49992 7.99966 3.49992ZM24.0359 22.4462C24.5809 21.7008 24.9088 20.819 24.9833 19.8986C25.0579 18.9783 24.8761 18.0552 24.4581 17.2318C24.0401 16.4085 23.4023 15.7169 22.6153 15.2339C21.8284 14.7508 20.923 14.4951 19.9997 14.4951C19.0763 14.4951 18.1709 14.7508 17.384 15.2339C16.597 15.7169 15.9592 16.4085 15.5412 17.2318C15.1233 18.0552 14.9414 18.9783 15.016 19.8986C15.0905 20.819 15.4184 21.7008 15.9634 22.4462C15.2519 22.8035 14.5914 23.2546 13.9997 23.7874C13.4079 23.2546 12.7475 22.8035 12.0359 22.4462C12.5809 21.7008 12.9088 20.819 12.9833 19.8986C13.0579 18.9783 12.8761 18.0552 12.4581 17.2318C12.0401 16.4085 11.4023 15.7169 10.6153 15.2339C9.82839 14.7508 8.92304 14.4951 7.99966 14.4951C7.07627 14.4951 6.17092 14.7508 5.38397 15.2339C4.59701 15.7169 3.9592 16.4085 3.54122 17.2318C3.12325 18.0552 2.94145 18.9783 3.01597 19.8986C3.09049 20.819 3.41842 21.7008 3.96341 22.4462C2.71799 23.0734 1.63535 23.9814 0.800908 25.0987C0.561881 25.4168 0.459007 25.8168 0.514916 26.2107C0.570826 26.6047 0.780939 26.9603 1.09903 27.1993C1.41713 27.4383 1.81715 27.5412 2.21109 27.4853C2.60503 27.4294 2.96063 27.2193 3.19966 26.9012C3.75852 26.1558 4.48328 25.5507 5.31653 25.134C6.14979 24.7173 7.06864 24.5003 8.00028 24.5003C8.93193 24.5003 9.85078 24.7173 10.684 25.134C11.5173 25.5507 12.242 26.1558 12.8009 26.9012C13.0398 27.2192 13.3952 27.4294 13.789 27.4854C14.1829 27.5414 14.5828 27.4387 14.9009 27.1999C15.0134 27.1146 15.1136 27.014 15.1984 26.9012C15.7573 26.1558 16.482 25.5507 17.3153 25.134C18.1485 24.7173 19.0674 24.5003 19.999 24.5003C20.9307 24.5003 21.8495 24.7173 22.6828 25.134C23.516 25.5507 24.2408 26.1558 24.7997 26.9012C24.9169 27.0615 25.0647 27.197 25.2347 27.2997C25.4047 27.4025 25.5934 27.4704 25.7898 27.4997C25.9863 27.5289 26.1866 27.5188 26.3791 27.4701C26.5716 27.4213 26.7525 27.3347 26.9113 27.2155C27.0702 27.0962 27.2037 26.9466 27.3043 26.7753C27.4048 26.604 27.4703 26.4145 27.497 26.2177C27.5237 26.0209 27.5111 25.8207 27.4598 25.6289C27.4086 25.437 27.3197 25.2572 27.1984 25.0999C26.3644 23.9819 25.2817 23.0734 24.0359 22.4462ZM7.99966 17.4999C8.39522 17.4999 8.7819 17.6172 9.1108 17.837C9.4397 18.0567 9.69604 18.3691 9.84742 18.7345C9.99879 19.1 10.0384 19.5021 9.96123 19.8901C9.88406 20.2781 9.69358 20.6344 9.41387 20.9141C9.13417 21.1938 8.7778 21.3843 8.38984 21.4615C8.00188 21.5387 7.59974 21.4991 7.23429 21.3477C6.86884 21.1963 6.55648 20.94 6.33672 20.6111C6.11696 20.2822 5.99966 19.8955 5.99966 19.4999C5.99966 18.9695 6.21037 18.4608 6.58544 18.0857C6.96052 17.7106 7.46922 17.4999 7.99966 17.4999ZM19.9997 17.4999C20.3952 17.4999 20.7819 17.6172 21.1108 17.837C21.4397 18.0567 21.696 18.3691 21.8474 18.7345C21.9988 19.1 22.0384 19.5021 21.9612 19.8901C21.8841 20.2781 21.6936 20.6344 21.4139 20.9141C21.1342 21.1938 20.7778 21.3843 20.3898 21.4615C20.0019 21.5387 19.5997 21.4991 19.2343 21.3477C18.8688 21.1963 18.5565 20.94 18.3367 20.6111C18.117 20.2822 17.9997 19.8955 17.9997 19.4999C17.9997 18.9695 18.2104 18.4608 18.5854 18.0857C18.9605 17.7106 19.4692 17.4999 19.9997 17.4999Z" fill="white"/>
</svg>
